<svg id="Layer_1" xmlns="http://www.w3.org/2000/svg" width="32" height="32" viewBox="0 0 32 32"><path fill="#467394" d="M24 5.244H8c-2.75 0-5 2.25-5 5v8c0 2.75 2.25 5 5 5h10.98l5.687 3.278c.953.549 1.733.098 1.733-1.002V22.6c1.54-.855 2.6-2.479 2.6-4.356v-8c0-2.75-2.25-5-5-5z"/><circle fill="#D6E0EF" cx="15.64" cy="18.397" r="1.344"/><path fill="#D6E0EF" d="M14.503 16.019h2.343c0-1.511 2.171-3.289 2.171-4.549 0-1.161-1.148-2.104-1.861-2.309-1.365-.391-3.653.102-3.653.102v2.033s2.445-.345 2.768.285c.527 1.029-1.768 2.243-1.768 4.438z"/></svg>