<svg id="Layer_1" xmlns="http://www.w3.org/2000/svg" width="512" height="512" viewBox="0 0 512 512"><path fill="#D33041" d="M462 141.347h-54.621v54.622h-27.311v-54.622h-54.622v-27.311h54.622v-54.62h27.311v54.621H462v27.31zM307.583 367.26c0 40.943-37.384 90.787-131.434 90.787C107.365 458.047 50 428.379 50 378.478c0-38.514 24.383-88.511 138.323-88.511-16.922-13.792-21.075-33.077-10.733-53.959-66.714 0-100.879-39.222-100.879-89.023 0-48.731 36.242-93.032 110.15-93.032h118.398l-26.457 27.77h-31.079c21.925 12.562 33.586 38.433 33.586 66.949 0 26.175-14.413 47.375-34.983 63.279-36.503 28.222-27.158 43.98 11.087 71.872 37.708 28.251 50.17 50.059 50.17 83.437zm-73.845-216.807c-5.506-41.905-32.806-76.284-64.704-77.243-31.909-.949-53.309 31.119-47.798 73.035 5.509 41.905 35.834 71.178 67.749 72.139 31.897.949 50.257-26.021 44.753-67.931zm32.893 221.01c0-34.466-31.441-67.317-84.192-67.317-47.542-.523-87.832 30.042-87.832 65.471 0 36.154 34.335 66.25 81.879 66.25 60.781-.001 90.145-28.25 90.145-64.404z" id="google-plus-icon"/></svg>