<svg id="Layer_1" xmlns="http://www.w3.org/2000/svg" width="30.24" height="24.24" viewBox="0 0 30.24 24.24"><g fill="#19566D"><path d="M28.74 13.62H1.5a1.5 1.5 0 0 1 0-3h27.24a1.5 1.5 0 1 1 0 3z"/><path d="M28.74 13.62c-.384 0-.768-.146-1.061-.439l-4.816-4.816a1.5 1.5 0 1 1 2.121-2.121L29.8 11.06a1.5 1.5 0 0 1-1.06 2.56z"/><path d="M23.923 18.435a1.5 1.5 0 0 1-1.061-2.56l4.816-4.815a1.5 1.5 0 0 1 2.121 2.122l-4.816 4.814a1.495 1.495 0 0 1-1.06.439zM6.316 18.437c-.384 0-.768-.146-1.061-.439L.439 13.182a1.5 1.5 0 1 1 2.121-2.121l4.816 4.816a1.5 1.5 0 0 1-1.06 2.56z"/><path d="M1.5 13.62a1.5 1.5 0 0 1-1.061-2.56l4.815-4.814a1.5 1.5 0 1 1 2.121 2.121L2.56 13.181a1.495 1.495 0 0 1-1.06.439zM15.12 24.24a1.5 1.5 0 0 1-1.5-1.5V1.5a1.5 1.5 0 0 1 3 0v21.24a1.5 1.5 0 0 1-1.5 1.5z"/></g></svg>