<svg id="Layer_1" xmlns="http://www.w3.org/2000/svg" width="512" height="512" viewBox="0 0 512 512"><path id="megaphone-4-icon" fill="#FFF" d="M244.188 358.903l34.94 11.31-30.984 29.835a24.437 24.437 0 0 1-24.393 5.765l-63.376-19.491a24.442 24.442 0 0 1-16.476-17.97l-9.987-44.353 35.268 11.393 3.523 16.243A16.207 16.207 0 0 0 183.6 363.54l32.691 9.825a16.192 16.192 0 0 0 16.193-3.811l11.704-10.651zm152.072 25.178c-27.921-8.326-213.776-65.327-290.142-88.896-20.25-6.25-32 5.75-41.471 12.162-19.738-23.219-20.722-72.922-1.917-96.904 9.888 4.742 21.91 16.39 43.388 7.742 76.12-30.65 251.808-101.55 278.81-111.518 31.96-11.797 73.722 41.656 77.564 135.771 3.848 94.114-30.85 152.195-66.232 141.643zm19.013-225.72c-13.386-25.994-32.018-24.796-43.053 1.758-19.46 46.835-17.356 121.456 7.016 171.729 12.65 26.095 32.741 24.834 43.053-1.761 20.661-53.305 15.612-127.787-7.016-171.726z"/></svg>