<svg id="Layer_1" xmlns="http://www.w3.org/2000/svg" width="512" height="512" viewBox="0 0 512 512"><path id="twitter-icon" fill="#D33041" d="M462 128.223c-15.158 6.724-31.449 11.269-48.547 13.31 17.449-10.461 30.854-27.025 37.164-46.764a169.218 169.218 0 0 1-53.676 20.511c-15.418-16.428-37.386-26.691-61.698-26.691-54.56 0-94.668 50.916-82.337 103.787-70.25-3.524-132.534-37.177-174.223-88.314-22.142 37.983-11.485 87.691 26.158 112.85a84.148 84.148 0 0 1-38.285-10.574c-.917 39.162 27.146 75.781 67.795 83.949a84.688 84.688 0 0 1-38.17 1.447c10.754 33.58 41.972 58.018 78.96 58.699C139.604 378.282 94.846 390.721 50 385.436c37.406 23.982 81.837 37.977 129.571 37.977 156.932 0 245.595-132.551 240.251-251.435 16.517-11.917 30.846-26.804 42.178-43.755z"/></svg>