<svg id="Layer_1" xmlns="http://www.w3.org/2000/svg" width="512" height="512" viewBox="0 0 512 512"><path id="user-11-icon" fill="#FFF" d="M306.026 461.649H50.081c0-56.453-4.539-87.566 54.473-101.176 57.767-13.324 114.787-25.234 87.375-75.717C110.699 135.161 168.77 50.35 256.001 50.35c85.545 0 151.675 84.375 64.072 234.406-21.278 36.442-44.047 67.771-44.047 101.285 0 29.224 11.41 55.829 30 75.608zM462 386.042c0 41.689-33.797 75.486-75.487 75.486-41.689 0-75.486-33.797-75.486-75.486s33.797-75.486 75.486-75.486c41.69 0 75.487 33.797 75.487 75.486zm-29.095-11.518h-32.676v-32.676h-25.233v32.676H342.32v25.234h32.676v32.674h25.233v-32.674h32.676v-25.234z"/></svg>