<svg id="Layer_1" xmlns="http://www.w3.org/2000/svg" width="55" height="55" viewBox="0 0 55 55"><path fill="#DC3F54" d="M16.152 47.777l-2.386-3.489c-.178-.273-.381-.545-.575-.815-.123-.163-.24-.32-.356-.49l-1.882-2.58a20.54 20.54 0 0 0-.596-.785 32.034 32.034 0 0 0-.372-.496l-.979-1.274a100.706 100.706 0 0 0-1.997-2.532l-.405-.506c-.528-.655-1.076-1.336-1.627-1.986l-1.025-1.227c-.223-.28-.465-.554-.707-.827l-.338-.393-1.048-1.198s-.397-.454-.491-.553l5.066-5.905c.145.099.684.487.684.487l1.389 1.002c.154.112.313.228.474.349.295.21.587.425.87.643l1.368 1.034c.706.525 1.402 1.076 2.081 1.605l.592.466c.993.778 1.853 1.469 2.627 2.115 0 0 1.612 1.332 1.761 1.452.283.23.572.463.848.71l1.589 1.383.634-.75a188.203 188.203 0 0 1 10.129-11.16c3.047-3.085 5.916-5.754 8.77-8.159.761-.644 1.547-1.284 2.336-1.913l1.207-.938 1.225-.905c.269-.201.543-.392.815-.587l.433-.302c.405-.285.825-.575 1.253-.854.6-.404 1.229-.797 1.852-1.178l4.262 6.412c-.45.361-.906.74-1.353 1.132-.331.277-.666.587-1 .902l-.243.216a16.9 16.9 0 0 0-.758.712l-.95.917-.961.974c-.633.654-1.27 1.324-1.882 1.988-2.307 2.523-4.611 5.31-7.051 8.532a172.185 172.185 0 0 0-6.447 9.108 196.44 196.44 0 0 0-3.019 4.695l-1.444 2.369-.703 1.187c-.143.241-.567.938-.858 1.409H16.152v.003z"/></svg>