<svg id="Layer_1" xmlns="http://www.w3.org/2000/svg" width="512" height="512" viewBox="0 0 512 512"><path id="key-8-icon" fill="#FFF" d="M256 90c91.742 0 166 74.243 166 166 0 91.741-74.243 166-166 166-91.741 0-166-74.243-166-166 0-91.742 74.243-166 166-166m0-40C142.229 50 50 142.229 50 256s92.229 206 206 206 206-92.229 206-206S369.771 50 256 50zm22.325 233.3l-22.024 22.021h-21.322l.002 21.323-22.232-.002v20.094h-49.377v-34.243l70.827-70.828a74.997 74.997 0 0 0 44.126 41.635zm67.611-113.312c23.558 23.56 23.557 61.753-.001 85.312s-61.752 23.559-85.31 0c-23.56-23.559-23.56-61.752 0-85.312 23.556-23.557 61.752-23.557 85.311 0zm-12.109 12.067c-5.844-5.843-15.317-5.843-21.16 0s-5.843 15.315 0 21.159c5.843 5.843 15.315 5.841 21.159-.002 5.844-5.842 5.842-15.315.001-21.157z"/></svg>