<svg width="24" height="19" viewBox="0 0 24 19" xmlns="http://www.w3.org/2000/svg"><title>email copy</title><g id="Page-1" fill="none" fill-rule="evenodd"><g id="Tablet-Portrait" transform="translate(-440 -385)"><g id="V2" transform="translate(24 150)"><g id="FB+Email" transform="translate(239 225)"><g id="Botao-email" transform="translate(136)"><g id="email-copy" transform="translate(41 8)"><path id="Rectangle-32" d="M0 0h24v24H0z"/><path d="M2.4 2A2.384 2.384 0 0 0 .012 4.375L0 18.625C0 19.931 1.08 21 2.4 21h19.2c1.32 0 2.4-1.069 2.4-2.375V4.375C24 3.069 22.92 2 21.6 2H2.4zm19.2 4.8l-9.6 6-9.6-6V4.4l9.6 6 9.6-6v2.4z" id="Imported-Layers" fill="#3D6E93"/></g></g></g></g></g></g></svg>