<svg id="Layer_1" xmlns="http://www.w3.org/2000/svg" width="826" height="149" viewBox="0 0 826 149"><path fill="#5E869C" d="M49.838 63.419H38.685a3.197 3.197 0 0 0-3.186 3.187v58.942c0 2.707-2.068 4.779-4.778 4.779h-9.558c-2.708 0-4.779-2.072-4.779-4.779V66.606a3.197 3.197 0 0 0-3.186-3.187h-3.186c-2.709 0-4.778-2.072-4.778-4.779v-9.558c0-2.708 2.069-4.779 4.778-4.779h3.186a3.196 3.196 0 0 0 3.186-3.188v-11.15c0-10.515 8.602-19.116 19.115-19.116h14.339c2.708 0 4.778 2.07 4.778 4.779v9.558c0 2.707-2.07 4.779-4.778 4.779h-4.779c-5.257 0-9.56 4.302-9.56 9.557v1.593a3.198 3.198 0 0 0 3.186 3.188h11.152c2.708 0 4.778 2.071 4.778 4.779v9.558c.001 2.708-2.069 4.779-4.777 4.779M80.102 130.327h-9.559c-2.707 0-4.779-2.072-4.779-4.779V10.85c0-2.708 2.072-4.78 4.779-4.78h9.559c2.707 0 4.778 2.072 4.778 4.78v114.698c.001 2.707-2.07 4.779-4.778 4.779M139.042 130.327h-19.117c-10.514 0-19.115-8.603-19.115-19.117V39.524c0-2.709 2.071-4.779 4.778-4.779h9.559c2.708 0 4.778 2.07 4.778 4.779v62.286c0 5.257 4.142 9.399 9.399 9.399h.318c5.257 0 9.399-4.143 9.399-9.399V39.524c0-2.709 2.071-4.779 4.779-4.779h9.558c2.708 0 4.779 2.07 4.779 4.779v71.686c.001 10.514-8.601 19.117-19.115 19.117M237.503 127.998l-2.432.013c-1.066.007-1.83-.75-1.836-1.814l-.382-65.873c-.051-8.821-7.241-15.93-16.066-15.879l-7.606.043c-8.822.053-15.93 7.244-15.881 16.066l.382 65.872c.007 1.064-.75 1.83-1.816 1.836l-2.434.015c-1.064.006-1.83-.753-1.837-1.817l-.401-69.675c-.059-10.038 8.109-18.299 18.15-18.358l15.213-.088c10.04-.058 18.3 8.107 18.358 18.15l.401 69.675c.008 1.063-.749 1.828-1.813 1.834M288.009 127.705l-15.212.089c-10.041.057-18.306-8.11-18.364-18.151l-.308-53.243c-.056-10.042 8.11-18.303 18.151-18.361l15.215-.087c10.041-.059 18.302 8.109 18.358 18.146l.067 11.41c.056 10.041-8.109 18.304-18.149 18.363l-23.126.134c-2.282.013-4.245 2.001-4.233 4.281l.089 15.52c.053 8.822 7.244 15.934 16.066 15.88l7.607-.042c8.822-.051 15.931-7.243 15.88-16.066l-.029-5.02c-.006-1.067.751-1.83 1.815-1.836l2.436-.016c1.065-.007 1.827.75 1.833 1.814l.05 8.824c.061 10.042-8.104 18.304-18.146 18.361m11.779-67.766c-.051-8.825-7.241-15.932-16.066-15.88l-7.607.044c-8.824.049-15.932 7.239-15.882 16.064l.092 15.517c.012 2.283 1.999 4.249 4.281 4.237l19.32-.112c8.826-.051 15.933-7.244 15.883-16.065l-.021-3.805zM356.489 127.336l-15.212.089c-10.041.057-18.302-8.11-18.36-18.151l-.065-11.41c-.06-10.038 8.107-18.302 18.148-18.36l23.122-.134c2.284-.014 4.25-2.001 4.238-4.284l-.092-15.516c-.05-8.824-7.24-15.931-16.066-15.882l-7.604.044c-8.822.052-15.931 7.243-15.88 16.065l.029 5.02c.006 1.064-.751 1.83-1.816 1.836l-2.434.015c-1.063.006-1.83-.75-1.836-1.815l-.053-8.823c-.058-10.04 8.11-18.302 18.15-18.361l15.212-.088c10.041-.057 18.302 8.108 18.361 18.149l.308 53.244c.06 10.043-8.109 18.306-18.15 18.362m11.954-37.647c-.012-2.279-2.002-4.247-4.284-4.234l-19.318.113c-8.826.052-15.934 7.242-15.881 16.065l.021 3.802c.05 8.824 7.241 15.934 16.067 15.883l7.604-.044c8.823-.053 15.934-7.242 15.88-16.068l-.089-15.517zM420.558 43.299l-8.064.047c-8.822.051-15.93 7.241-15.88 16.064l.382 65.872c.006 1.062-.752 1.83-1.815 1.837l-2.436.013c-1.065.006-1.83-.751-1.836-1.814l-.497-86.105c-.006-1.064.751-1.83 1.815-1.836l2.434-.013c1.064-.006 1.83.751 1.836 1.814l.023 3.956c.007 1.065.92 1.212 1.677.294 3.323-3.822 8.027-6.131 13.502-6.164l8.823-.05c1.065-.006 1.83.751 1.836 1.815l.012 2.433c.008 1.067-.75 1.831-1.812 1.837M494.516 144.748l-15.213.088c-10.041.058-18.304-8.109-18.36-18.15l-.044-7.302c-.006-1.065.751-1.829 1.815-1.836l2.436-.014c1.064-.006 1.83.748 1.837 1.815l.021 3.497c.051 8.823 7.24 15.934 16.064 15.881l7.607-.043c8.824-.051 15.931-7.243 15.882-16.067l-.119-20.232c-.006-1.065-.919-1.213-1.673-.296-3.326 3.823-8.027 6.134-13.503 6.164l-12.174.071c-10.04.06-18.301-8.108-18.36-18.149l-.296-51.42c-.006-1.064.752-1.827 1.815-1.833l2.434-.015c1.064-.007 1.83.75 1.836 1.814l.273 47.617c.056 8.822 7.245 15.93 16.068 15.881l7.606-.044c8.824-.052 15.932-7.243 15.879-16.065l-.275-47.617c-.007-1.064.75-1.827 1.815-1.833l2.436-.016c1.064-.005 1.827.751 1.833 1.815l.51 87.93c.057 10.038-8.112 18.301-18.15 18.359M562.758 126.106l-15.212.087c-10.041.058-18.305-8.11-18.363-18.151l-.309-53.243c-.056-10.041 8.11-18.302 18.151-18.359l15.216-.089c10.038-.059 18.301 8.109 18.357 18.148l.308 53.247c.059 10.04-8.107 18.301-18.148 18.36m11.779-67.768c-.051-8.825-7.24-15.932-16.066-15.882l-7.605.046c-8.826.05-15.934 7.241-15.884 16.065l.264 45.638c.054 8.822 7.244 15.933 16.066 15.881l7.608-.045c8.821-.049 15.93-7.24 15.88-16.065l-.263-45.638zM631.809 125.719l-15.211.088c-10.041.058-18.306-8.109-18.364-18.151l-.402-69.672c-.006-1.064.751-1.831 1.815-1.836l2.437-.015c1.064-.006 1.83.75 1.836 1.816l.378 65.871c.054 8.822 7.245 15.932 16.067 15.88l7.607-.044c8.822-.05 15.931-7.244 15.88-16.066l-.382-65.87c-.006-1.065.751-1.831 1.816-1.838l2.436-.014c1.064-.005 1.827.751 1.833 1.816l.402 69.673c.06 10.041-8.107 18.303-18.148 18.362"/><g opacity=".47"><path fill="none" d="M762.618 11.866h58.145v58.523h-58.145z"/><path fill="none" d="M762.618 11.866h58.146v58.523h-58.146z"/><path fill="#4F97BA" d="M813.66 41.787c0 11.779-9.553 21.328-21.326 21.328-11.782 0-21.33-9.549-21.33-21.328 0-11.777 9.548-21.326 21.33-21.326 11.773 0 21.326 9.549 21.326 21.326"/><path fill="#4F97BA" d="M782.056 24.431c4.973-1.542 6.883-8.638 8.039-12.564 2.66 3.594 1.888 8.779 6.319 9.843 4.425 1.058 6.846-2.451 9.402-5.77-.985 1.282-.517 9.712.109 11.364 1.956 5.147 7.905 3.01 11.814 2.8 1.04-.059-5.51 5.078-5.404 4.852-1.831 4.023 6.718 4.044 8.431 5.014-1.85 1.76-11.129 2.746-8.784 6.565 1.429 2.329 5.968 3.539 8.195 4.773-3.774 1.141-10.015.51-13.231 2.875-2.688 1.974-.528 9.819-.716 12.91-2.931-1.172-6.564-7.713-10.028-6.88-2.991.725-4.451 7.148-5.21 10.175-1.293-2.851-4.036-9.264-7.085-10.299-3.199-1.077-5.337 1.957-8.004 3.224-.367-2.857 2.317-7.086-.291-8.844-3.089-2.084-7.316-1.307-10.529-1.277.125 0 2.881-3.199 3.266-3.534 1.125-.967 3.307-2.295 3.669-3.858.785-3.416-7.184-4.424-9.399-5.875 1.803-.676 3.979-.687 5.888-1.15 2.648-.642 5.247-.335 2.975-3.555-1.398-1.972-3.517-3.373-4.817-5.42 2.321-.141 8.862 1.542 10.166-.736 1.298-2.273-1.579-6.342-2.145-8.566 2.948.167 6.082 1.791 9.131 2.2 1.494.21 3.517.061 4.194 1.403"/><path fill="#FFF" d="M810.685 41.345c0 9.948-8.061 18.008-18.008 18.008-9.948 0-18.015-8.06-18.015-18.008 0-9.948 8.066-18.012 18.015-18.012 9.947 0 18.008 8.064 18.008 18.012"/><path fill="#A6D0E7" d="M797.291 31.705a2.975 2.975 0 1 1-5.95-.002 2.975 2.975 0 0 1 5.95.002M801.92 40.302a2.649 2.649 0 0 1-2.643 2.642 2.65 2.65 0 0 1-2.648-2.642 2.649 2.649 0 0 1 2.648-2.648 2.648 2.648 0 0 1 2.643 2.648M787.576 48.638a4.026 4.026 0 0 1-4.025 4.022 4.03 4.03 0 0 1-4.03-4.022 4.027 4.027 0 1 1 8.055 0M797.291 54.517a2.316 2.316 0 1 1-4.632.004 2.316 2.316 0 0 1 4.632-.004M782.394 35.737c0 .85-.69 1.537-1.543 1.537a1.533 1.533 0 0 1-1.532-1.537 1.537 1.537 0 1 1 3.075 0M788.173 38.05c0 1.062-.865 1.92-1.928 1.92a1.923 1.923 0 1 1 0-3.847c1.063 0 1.928.861 1.928 1.927"/></g><path fill="#76C2E6" d="M688.037 66.99c0-25.873 20.976-46.85 46.844-46.85 25.875 0 46.848 20.977 46.848 46.85 0 25.871-20.973 46.846-46.848 46.846-25.868 0-46.844-20.975-46.844-46.846"/><path fill="#76C2E6" d="M690.944 82.001c4.021-8.839-14.754-8.895-18.525-11.018 4.065-3.87 24.45-6.033 19.303-14.424-3.136-5.114-7.026-16.896-11.914-19.624 8.302-2.509 15.9 8.014 22.97 2.826 5.908-4.337 1.161-21.571 1.572-28.363 6.437 2.58 14.43 16.942 22.039 15.114 6.565-1.584 9.785-15.698 11.45-22.348 2.827 6.263 8.852 20.348 15.56 22.614 7.023 2.374 11.719-4.288 17.573-7.08.808 6.277-5.089 15.572.648 19.442 6.774 4.567 16.064 2.858 23.127 2.794-.272 0-6.328 7.029-7.179 7.762-2.47 2.124-7.262 5.045-8.053 8.487-1.725 7.499 15.781 9.706 20.643 12.898-3.95 1.475-8.74 1.513-12.934 2.53-5.815 1.402-11.525.729-6.526 7.804 3.063 4.333 7.723 7.408 10.572 11.899-5.096.315-19.471-3.387-22.329 1.622-2.856 4.998 3.471 13.939 4.706 18.823-6.472-.376-13.362-3.936-20.048-4.847-3.287-.45-7.728-.121-9.224-3.067"/><path fill="#76C2E6" d="M757.46 105.118c-10.916 3.389-15.119 18.974-17.662 27.602-5.841-7.894-4.147-19.294-13.883-21.629-9.713-2.328-15.03 5.393-20.656 12.675 2.171-2.812 1.141-21.342-.238-24.963"/><g opacity=".75"><path fill="none" d="M693.418 24.951h83.727v83.729h-83.727z"/><path fill="none" d="M693.418 24.952h83.728v83.728h-83.728z"/><path fill="#3A7AA5" d="M693.418 66.816c0-23.122 18.739-41.865 41.863-41.865 23.119 0 41.863 18.743 41.863 41.865 0 23.121-18.744 41.864-41.863 41.864-23.124 0-41.863-18.743-41.863-41.864"/></g><g opacity=".75"><path fill="none" d="M713.822 33.94h49.661v61.741h-49.661z"/><path fill="none" d="M713.822 33.94h49.661v61.741h-49.661z"/><path fill="#00557E" d="M723.986 89.143a6.537 6.537 0 1 1 13.076 0 6.538 6.538 0 0 1-13.076 0M713.822 70.259a5.811 5.811 0 1 1 11.62-.002 5.811 5.811 0 0 1-11.62.002M745.335 51.949a8.842 8.842 0 0 1 8.843-8.845 8.845 8.845 0 1 1-8.843 8.845M723.986 39.028a5.09 5.09 0 0 1 5.089-5.087 5.085 5.085 0 1 1 0 10.17 5.09 5.09 0 0 1-5.089-5.083M756.717 80.285a3.39 3.39 0 0 1 3.386-3.387 3.386 3.386 0 0 1 3.381 3.387 3.383 3.383 0 0 1-6.767 0M744.025 75.205a4.232 4.232 0 0 1 8.461 0 4.229 4.229 0 0 1-4.226 4.233 4.235 4.235 0 0 1-4.235-4.233"/></g><path fill="#76C2E6" d="M691.968 85.231l-9.926 14.125 19.852.381"/></svg>