<svg id="Layer_1" xmlns="http://www.w3.org/2000/svg" width="940" height="114" viewBox="0 0 940 114"><path fill="#4B83A5" d="M905.629 22.622h-804.08C91.2 9.116 74.913.396 56.605.396 25.358.396 0 25.74 0 56.999c0 31.261 25.357 56.604 56.604 56.604 18.308 0 34.595-8.722 44.942-22.229h804.081c18.965 0 34.372-15.394 34.372-34.377.004-18.983-15.405-34.375-34.37-34.375z"/><path fill="#16556C" d="M103.425 33.062H905.03c13.196 0 23.937 10.736 23.937 23.937s-10.736 23.935-23.936 23.935H103.424l.001-47.872z"/><path fill="#FEFEFD" d="M56.604 103.161c-25.455 0-46.163-20.709-46.163-46.162 0-25.454 20.709-46.162 46.163-46.162 14.464 0 27.826 6.61 36.653 18.135l3.137 4.092h7.029v47.872h-7.03l-3.136 4.092c-8.827 11.522-22.189 18.133-36.653 18.133z"/><path fill="none" stroke="#4B83A5" stroke-width="4" stroke-linecap="round" stroke-linejoin="round" stroke-miterlimit="10" d="M230.82 89.066v16.364M245.947 89.066v8.351M261.073 89.066v8.351M276.202 89.066v8.351M291.329 89.066v16.364M306.456 89.066v8.351M321.585 89.066v8.351M336.714 89.066v8.351M351.84 89.066v16.364M366.968 89.066v8.351M382.094 89.066v8.351M397.221 89.066v8.351M412.348 89.066v16.364M427.474 89.066v8.351M442.604 89.066v8.351M457.729 89.066v8.351M472.858 89.066v16.364M487.984 89.066v8.351M503.112 89.066v8.351M518.239 89.066v8.351M533.367 89.066v16.364M548.493 89.066v8.351M563.619 89.066v8.351M578.747 89.066v8.351M593.879 89.066v16.364M609.004 89.066v8.351M624.133 89.066v8.351M639.258 89.066v8.351M654.385 89.066v16.364M669.512 89.066v8.351M684.639 89.066v8.351M699.767 89.066v8.351M714.895 89.066v16.364M730.021 89.066v8.351M745.148 89.066v8.351M760.276 89.066v8.351M775.405 89.066v16.364M790.531 89.066v8.351M805.658 89.066v8.351M820.785 89.066v8.351M835.912 89.066v16.364M851.038 89.066v8.351M866.17 89.066v8.351M881.296 89.066v8.351M896.424 89.066v16.364"/><g fill="#63A3C2"><path d="M370.19 51.925c.961 0 1.793.176 2.494.526.701.35 1.329.949 1.883 1.797h.073a63.35 63.35 0 0 1-.073-3.02v-4.781h1.198v19.024h-.795l-.306-2.029h-.098c-1.011 1.516-2.462 2.273-4.353 2.273-1.834 0-3.236-.57-4.206-1.711-.97-1.142-1.455-2.804-1.455-4.988 0-2.299.48-4.056 1.442-5.27.964-1.214 2.362-1.821 4.196-1.821zm0 1.1c-1.451 0-2.541.51-3.271 1.528s-1.094 2.498-1.094 4.438c0 3.766 1.463 5.648 4.389 5.648 1.5 0 2.6-.437 3.301-1.309.701-.872 1.051-2.311 1.051-4.315v-.208c0-2.055-.344-3.531-1.033-4.433-.688-.898-1.803-1.349-3.343-1.349zM385.46 51.925c.562 0 1.166.058 1.81.171l-.232 1.162a7.06 7.06 0 0 0-1.724-.208c-1.133 0-2.062.481-2.788 1.442-.726.962-1.088 2.177-1.088 3.644v7.336h-1.21v-13.29h1.027l.123 2.396h.085c.546-.979 1.129-1.665 1.749-2.061.618-.394 1.368-.592 2.248-.592zM398.041 65.472l-.306-2.103h-.098c-.668.855-1.355 1.461-2.06 1.815-.705.354-1.539.531-2.5.531-1.304 0-2.319-.334-3.044-1.002-.726-.669-1.088-1.594-1.088-2.775 0-1.296.54-2.303 1.62-3.021 1.08-.717 2.643-1.096 4.688-1.137l2.531-.073v-.88c0-1.264-.256-2.218-.77-2.861S395.673 53 394.532 53c-1.231 0-2.506.342-3.827 1.027l-.453-1.052c1.459-.685 2.902-1.027 4.328-1.027 1.459 0 2.549.379 3.271 1.138.721.758 1.082 1.939 1.082 3.545v8.84h-.892zm-4.891-.856c1.418 0 2.537-.405 3.356-1.217.819-.811 1.229-1.938 1.229-3.381V58.71l-2.323.098c-1.867.09-3.197.381-3.992.874-.794.493-1.192 1.262-1.192 2.305 0 .831.255 1.478.764 1.938.51.461 1.229.691 2.158.691zM413.605 52.182v.844l-2.751.171c.733.913 1.1 1.916 1.1 3.008 0 1.28-.426 2.317-1.277 3.111-.852.795-1.995 1.192-3.43 1.192-.603 0-1.027-.024-1.271-.073-.481.253-.848.55-1.101.893-.252.342-.379.705-.379 1.088 0 .424.161.733.483.93.322.195.862.293 1.62.293h2.323c1.443 0 2.547.292 3.313.874.766.583 1.149 1.444 1.149 2.586 0 1.402-.568 2.484-1.706 3.246s-2.757 1.144-4.86 1.144c-1.671 0-2.965-.322-3.882-.966-.917-.645-1.375-1.541-1.375-2.69 0-.913.283-1.671.85-2.273.566-.604 1.334-1.015 2.305-1.235a2.34 2.34 0 0 1-.96-.728 1.73 1.73 0 0 1-.36-1.082c0-.888.566-1.671 1.699-2.348-.774-.317-1.377-.816-1.81-1.497s-.648-1.461-.648-2.342c0-1.328.422-2.394 1.266-3.197.844-.803 1.982-1.204 3.417-1.204.872 0 1.549.086 2.03.257h4.255zm-10.759 15.54c0 1.825 1.357 2.738 4.071 2.738 3.488 0 5.233-1.112 5.233-3.338 0-.799-.273-1.377-.819-1.736-.546-.358-1.43-.538-2.653-.538h-2.176c-2.438 0-3.656.958-3.656 2.874zm1.015-11.396c0 1.027.312 1.824.936 2.391s1.457.85 2.5.85c1.108 0 1.958-.281 2.549-.844.591-.562.886-1.377.886-2.445 0-1.133-.304-1.982-.911-2.549-.607-.566-1.457-.85-2.549-.85-1.06 0-1.893.304-2.5.91-.607.607-.911 1.453-.911 2.537zM426.345 64.641c.766 0 1.435-.065 2.005-.196v.979c-.587.195-1.264.293-2.03.293-1.173 0-2.04-.313-2.598-.941-.559-.627-.838-1.613-.838-2.958v-8.583h-1.968v-.709l1.968-.551.611-3.008h.624v3.216h3.9v1.052h-3.9v8.411c0 1.02.179 1.773.538 2.262.359.488.922.733 1.688.733zM442.215 58.809c0 2.168-.526 3.861-1.577 5.08-1.052 1.219-2.502 1.827-4.353 1.827-1.166 0-2.192-.281-3.081-.843-.889-.562-1.569-1.37-2.042-2.421-.473-1.052-.709-2.267-.709-3.644 0-2.168.525-3.857 1.577-5.068 1.051-1.21 2.494-1.815 4.328-1.815 1.826 0 3.258.613 4.297 1.84 1.04 1.227 1.56 2.908 1.56 5.044zm-10.49 0c0 1.826.401 3.25 1.204 4.272.803 1.023 1.938 1.535 3.405 1.535 1.467 0 2.602-.512 3.405-1.535.803-1.022 1.204-2.446 1.204-4.272 0-1.834-.405-3.257-1.216-4.268-.811-1.01-1.95-1.516-3.417-1.516-1.467 0-2.598.503-3.393 1.51-.795 1.007-1.192 2.432-1.192 4.274zM457.705 65.716c-1.899 0-3.387-.599-4.462-1.797-1.076-1.198-1.614-2.869-1.614-5.013 0-2.201.558-3.914 1.675-5.142 1.117-1.227 2.645-1.84 4.585-1.84 1.149 0 2.25.2 3.301.6l-.33 1.075c-1.149-.383-2.147-.574-2.995-.574-1.63 0-2.865.503-3.705 1.51-.84 1.007-1.259 2.456-1.259 4.347 0 1.793.419 3.197 1.259 4.212.839 1.015 2.013 1.522 3.521 1.522 1.206 0 2.327-.216 3.362-.648v1.125c-.848.416-1.96.623-3.338.623zM473.562 65.472v-8.619c0-1.337-.281-2.309-.844-2.916-.562-.607-1.434-.911-2.616-.911-1.589 0-2.753.401-3.491 1.204s-1.106 2.105-1.106 3.906v7.336h-1.21V46.447h1.21V52.5l-.061 1.699h.085c.497-.799 1.125-1.378 1.883-1.736.758-.358 1.7-.538 2.824-.538 3.016 0 4.524 1.618 4.524 4.854v8.693h-1.198zM487.134 65.472l-.306-2.103h-.098c-.668.855-1.355 1.461-2.061 1.815s-1.538.531-2.5.531c-1.305 0-2.318-.334-3.045-1.002-.725-.669-1.088-1.594-1.088-2.775 0-1.296.541-2.303 1.621-3.021 1.079-.717 2.643-1.096 4.688-1.137l2.531-.073v-.88c0-1.264-.256-2.218-.77-2.861S484.764 53 483.624 53c-1.23 0-2.506.342-3.826 1.027l-.453-1.052c1.459-.685 2.902-1.027 4.328-1.027 1.459 0 2.549.379 3.271 1.138.722.758 1.082 1.939 1.082 3.545v8.84h-.892zm-4.891-.856c1.419 0 2.537-.405 3.356-1.217.818-.811 1.229-1.938 1.229-3.381V58.71l-2.322.098c-1.867.09-3.197.381-3.992.874s-1.192 1.262-1.192 2.305c0 .831.255 1.478.765 1.938.508.461 1.227.691 2.156.691zM501.598 65.472v-8.619c0-1.337-.281-2.309-.844-2.916s-1.435-.911-2.616-.911c-1.589 0-2.753.401-3.491 1.204-.737.803-1.105 2.105-1.105 3.906v7.336h-1.211v-13.29h1.027l.232 1.822h.072c.865-1.386 2.4-2.079 4.609-2.079 3.016 0 4.524 1.618 4.524 4.854v8.693h-1.197zM517.468 52.182v.844l-2.751.171c.733.913 1.1 1.916 1.1 3.008 0 1.28-.426 2.317-1.277 3.111-.852.795-1.994 1.192-3.43 1.192-.603 0-1.026-.024-1.271-.073-.48.253-.848.55-1.1.893a1.799 1.799 0 0 0-.379 1.088c0 .424.16.733.482.93.322.195.862.293 1.62.293h2.323c1.442 0 2.547.292 3.312.874.767.583 1.15 1.444 1.15 2.586 0 1.402-.568 2.484-1.706 3.246s-2.757 1.144-4.86 1.144c-1.67 0-2.965-.322-3.881-.966-.918-.645-1.376-1.541-1.376-2.69 0-.913.283-1.671.85-2.273.566-.604 1.335-1.015 2.305-1.235a2.333 2.333 0 0 1-.96-.728 1.73 1.73 0 0 1-.36-1.082c0-.888.566-1.671 1.699-2.348-.774-.317-1.378-.816-1.81-1.497s-.648-1.461-.648-2.342c0-1.328.422-2.394 1.266-3.197.844-.803 1.982-1.204 3.418-1.204.871 0 1.549.086 2.029.257h4.255zm-10.759 15.54c0 1.825 1.356 2.738 4.07 2.738 3.488 0 5.233-1.112 5.233-3.338 0-.799-.273-1.377-.819-1.736-.546-.358-1.43-.538-2.652-.538h-2.177c-2.437 0-3.655.958-3.655 2.874zm1.014-11.396c0 1.027.312 1.824.936 2.391.624.566 1.457.85 2.5.85 1.109 0 1.959-.281 2.55-.844s.886-1.377.886-2.445c0-1.133-.303-1.982-.91-2.549s-1.457-.85-2.549-.85c-1.061 0-1.894.304-2.5.91-.609.607-.913 1.453-.913 2.537zM525.561 65.716c-1.932 0-3.438-.595-4.518-1.784-1.08-1.19-1.619-2.857-1.619-5.001 0-2.119.521-3.816 1.564-5.092 1.043-1.276 2.449-1.914 4.219-1.914 1.564 0 2.799.546 3.704 1.639.905 1.092 1.357 2.575 1.357 4.45v.979h-9.573c.016 1.825.441 3.22 1.277 4.181.836.962 2.031 1.443 3.588 1.443.759 0 1.426-.054 2-.159.574-.106 1.302-.334 2.182-.685v1.101c-.75.325-1.442.548-2.078.666s-1.337.176-2.103.176zm-.354-12.715c-1.28 0-2.307.422-3.082 1.266-.773.844-1.227 2.06-1.356 3.649h8.216c0-1.541-.334-2.745-1.002-3.613-.67-.868-1.594-1.302-2.776-1.302zM543.949 64.641c.766 0 1.435-.065 2.006-.196v.979c-.588.195-1.264.293-2.03.293-1.173 0-2.04-.313-2.598-.941-.559-.627-.838-1.613-.838-2.958v-8.583h-1.968v-.709l1.968-.551.611-3.008h.624v3.216h3.9v1.052h-3.9v8.411c0 1.02.179 1.773.537 2.262.36.488.923.733 1.688.733zM558.096 65.472v-8.619c0-1.337-.281-2.309-.844-2.916s-1.436-.911-2.617-.911c-1.589 0-2.752.401-3.49 1.204s-1.106 2.105-1.106 3.906v7.336h-1.21V46.447h1.21V52.5l-.062 1.699h.086c.497-.799 1.125-1.378 1.883-1.736s1.699-.538 2.824-.538c3.016 0 4.523 1.618 4.523 4.854v8.693h-1.197zM568.965 65.716c-1.932 0-3.438-.595-4.518-1.784-1.08-1.19-1.62-2.857-1.62-5.001 0-2.119.521-3.816 1.565-5.092 1.043-1.276 2.449-1.914 4.217-1.914 1.565 0 2.801.546 3.705 1.639.904 1.092 1.357 2.575 1.357 4.45v.979h-9.573c.017 1.825.442 3.22 1.277 4.181.835.962 2.032 1.443 3.589 1.443.758 0 1.424-.054 1.998-.159.575-.106 1.303-.334 2.184-.685v1.101c-.75.325-1.443.548-2.079.666s-1.337.176-2.102.176zm-.356-12.715c-1.279 0-2.307.422-3.08 1.266-.775.844-1.227 2.06-1.357 3.649h8.216c0-1.541-.334-2.745-1.003-3.613-.668-.868-1.593-1.302-2.776-1.302zM587.353 64.641c.767 0 1.435-.065 2.005-.196v.979c-.586.195-1.264.293-2.029.293-1.174 0-2.039-.313-2.598-.941-.559-.627-.838-1.613-.838-2.958v-8.583h-1.969v-.709l1.969-.551.611-3.008h.623v3.216h3.9v1.052h-3.9v8.411c0 1.02.18 1.773.539 2.262.357.488.92.733 1.687.733zM597.598 65.716c-1.932 0-3.438-.595-4.518-1.784-1.08-1.19-1.619-2.857-1.619-5.001 0-2.119.521-3.816 1.564-5.092 1.043-1.276 2.449-1.914 4.219-1.914 1.564 0 2.799.546 3.704 1.639.905 1.092 1.357 2.575 1.357 4.45v.979h-9.573c.016 1.825.441 3.22 1.277 4.181.836.962 2.031 1.443 3.588 1.443.759 0 1.426-.054 2-.159.574-.106 1.302-.334 2.182-.685v1.101c-.75.325-1.442.548-2.078.666s-1.337.176-2.103.176zm-.354-12.715c-1.28 0-2.307.422-3.082 1.266-.773.844-1.227 2.06-1.356 3.649h8.216c0-1.541-.334-2.745-1.002-3.613-.669-.868-1.594-1.302-2.776-1.302zM622.576 65.472v-8.718c0-1.296-.252-2.241-.758-2.836s-1.279-.893-2.322-.893c-1.361 0-2.369.375-3.021 1.125-.652.75-.978 1.928-.978 3.533v7.788h-1.235v-9.084c0-2.241-1.026-3.362-3.081-3.362-1.395 0-2.408.405-3.045 1.217-.635.811-.953 2.108-.953 3.894v7.336h-1.211v-13.29h1.003l.257 1.822h.073a3.813 3.813 0 0 1 1.565-1.535 4.665 4.665 0 0 1 2.237-.544c2.095 0 3.439.787 4.034 2.359h.049a4.53 4.53 0 0 1 1.742-1.748c.73-.407 1.56-.611 2.488-.611 1.451 0 2.539.388 3.265 1.162s1.089 2.005 1.089 3.691v8.693h-1.198zM633.764 65.716c-2.047 0-3.538-.766-4.475-2.298h-.086l.037 1.026c.031.604.049 1.264.049 1.981v5.062h-1.211V52.182h1.027l.232 1.896h.072c.914-1.435 2.373-2.152 4.378-2.152 1.793 0 3.16.589 4.102 1.767s1.412 2.892 1.412 5.142c0 2.185-.495 3.878-1.485 5.08s-2.341 1.801-4.052 1.801zm-.026-1.075c1.361 0 2.416-.506 3.161-1.517.746-1.011 1.118-2.425 1.118-4.242 0-3.904-1.41-5.856-4.229-5.856-1.549 0-2.687.426-3.411 1.277-.726.853-1.088 2.24-1.088 4.163v.392c0 2.078.348 3.562 1.045 4.45s1.832 1.333 3.404 1.333zM648.35 65.716c-1.932 0-3.438-.595-4.518-1.784-1.08-1.19-1.62-2.857-1.62-5.001 0-2.119.521-3.816 1.565-5.092 1.043-1.276 2.449-1.914 4.217-1.914 1.565 0 2.801.546 3.705 1.639.904 1.092 1.357 2.575 1.357 4.45v.979h-9.573c.017 1.825.442 3.22 1.277 4.181.835.962 2.032 1.443 3.589 1.443.758 0 1.424-.054 1.998-.159.575-.106 1.303-.334 2.184-.685v1.101c-.75.325-1.443.548-2.079.666s-1.337.176-2.102.176zm-.356-12.715c-1.279 0-2.307.422-3.08 1.266-.775.844-1.227 2.06-1.357 3.649h8.216c0-1.541-.334-2.745-1.003-3.613-.668-.868-1.593-1.302-2.776-1.302zM661.957 51.925c.562 0 1.166.058 1.811.171l-.232 1.162a7.068 7.068 0 0 0-1.725-.208c-1.133 0-2.062.481-2.787 1.442-.726.962-1.088 2.177-1.088 3.644v7.336h-1.211v-13.29h1.027l.122 2.396h.085c.547-.979 1.129-1.665 1.749-2.061.619-.394 1.369-.592 2.249-.592zM674.538 65.472l-.306-2.103h-.098c-.668.855-1.355 1.461-2.061 1.815s-1.538.531-2.5.531c-1.305 0-2.318-.334-3.045-1.002-.725-.669-1.088-1.594-1.088-2.775 0-1.296.541-2.303 1.621-3.021 1.079-.717 2.643-1.096 4.688-1.137l2.531-.073v-.88c0-1.264-.256-2.218-.77-2.861S672.168 53 671.028 53c-1.23 0-2.506.342-3.826 1.027l-.453-1.052c1.459-.685 2.902-1.027 4.328-1.027 1.459 0 2.549.379 3.271 1.138.722.758 1.082 1.939 1.082 3.545v8.84h-.892zm-4.891-.856c1.419 0 2.537-.405 3.356-1.217.818-.811 1.229-1.938 1.229-3.381V58.71l-2.322.098c-1.867.09-3.197.381-3.992.874s-1.192 1.262-1.192 2.305c0 .831.255 1.478.765 1.938.508.461 1.228.691 2.156.691zM683.243 64.641c.767 0 1.435-.065 2.005-.196v.979c-.586.195-1.264.293-2.029.293-1.174 0-2.039-.313-2.598-.941-.559-.627-.838-1.613-.838-2.958v-8.583h-1.969v-.709l1.969-.551.611-3.008h.623v3.216h3.9v1.052h-3.9v8.411c0 1.02.18 1.773.539 2.262.358.488.921.733 1.687.733zM689.174 52.182v8.607c0 1.337.28 2.309.843 2.916s1.435.911 2.616.911c1.582 0 2.745-.399 3.49-1.198.746-.799 1.119-2.099 1.119-3.9v-7.336h1.198v13.29h-1.026l-.221-1.834h-.073c-.864 1.386-2.4 2.078-4.609 2.078-3.024 0-4.536-1.617-4.536-4.854v-8.681h1.199zM708.123 51.925c.562 0 1.166.058 1.811.171l-.232 1.162a7.068 7.068 0 0 0-1.725-.208c-1.133 0-2.062.481-2.787 1.442-.726.962-1.088 2.177-1.088 3.644v7.336h-1.211v-13.29h1.027l.122 2.396h.085c.547-.979 1.129-1.665 1.749-2.061.619-.394 1.369-.592 2.249-.592zM718.002 65.716c-1.932 0-3.438-.595-4.518-1.784-1.08-1.19-1.619-2.857-1.619-5.001 0-2.119.521-3.816 1.564-5.092 1.043-1.276 2.449-1.914 4.219-1.914 1.564 0 2.799.546 3.704 1.639.905 1.092 1.357 2.575 1.357 4.45v.979h-9.573c.016 1.825.441 3.22 1.277 4.181.836.962 2.031 1.443 3.588 1.443.759 0 1.426-.054 2-.159.574-.106 1.302-.334 2.182-.685v1.101c-.75.325-1.442.548-2.078.666s-1.336.176-2.103.176zm-.354-12.715c-1.28 0-2.307.422-3.082 1.266-.773.844-1.227 2.06-1.356 3.649h8.216c0-1.541-.334-2.745-1.002-3.613-.669-.868-1.594-1.302-2.776-1.302z"/></g></svg>