<?xml version="1.0" encoding="utf-8"?>
<!-- Generator: Adobe Illustrator 16.0.0, SVG Export Plug-In . SVG Version: 6.00 Build 0)  -->
<!DOCTYPE svg PUBLIC "-//W3C//DTD SVG 1.1//EN" "http://www.w3.org/Graphics/SVG/1.1/DTD/svg11.dtd">
<svg version="1.1" id="Layer_1" xmlns="http://www.w3.org/2000/svg" xmlns:xlink="http://www.w3.org/1999/xlink" x="0px" y="0px"
	 width="30.24px" height="24.24px" viewBox="0 0 30.24 24.24" enable-background="new 0 0 30.24 24.24" xml:space="preserve">
<g>
	<path fill="#19566D" d="M28.74,13.62H1.5c-0.828,0-1.5-0.672-1.5-1.5c0-0.829,0.672-1.5,1.5-1.5h27.24c0.828,0,1.5,0.671,1.5,1.5
		C30.24,12.948,29.568,13.62,28.74,13.62z"/>
	<path fill="#19566D" d="M28.74,13.62c-0.384,0-0.768-0.146-1.061-0.439l-4.816-4.816c-0.586-0.586-0.586-1.536,0-2.121
		c0.586-0.586,1.535-0.586,2.121,0L29.8,11.06c0.586,0.585,0.586,1.535,0,2.121C29.507,13.474,29.124,13.62,28.74,13.62z"/>
	<path fill="#19566D" d="M23.923,18.435c-0.384,0-0.768-0.146-1.061-0.439c-0.586-0.586-0.586-1.536,0-2.121l4.816-4.815
		c0.586-0.585,1.535-0.585,2.121,0.001s0.586,1.535,0,2.121l-4.816,4.814C24.691,18.288,24.307,18.435,23.923,18.435z"/>
	<path fill="#19566D" d="M6.316,18.437c-0.384,0-0.768-0.146-1.061-0.439l-4.816-4.816c-0.586-0.586-0.586-1.536,0-2.121
		c0.586-0.586,1.535-0.586,2.121,0l4.816,4.816c0.586,0.586,0.586,1.535,0,2.121C7.083,18.29,6.7,18.437,6.316,18.437z"/>
	<path fill="#19566D" d="M1.5,13.62c-0.384,0-0.768-0.146-1.061-0.439c-0.586-0.586-0.586-1.536,0-2.121l4.815-4.814
		c0.586-0.586,1.536-0.586,2.121,0c0.586,0.586,0.586,1.535,0,2.121L2.56,13.181C2.267,13.474,1.883,13.62,1.5,13.62z"/>
	<path fill="#19566D" d="M15.12,24.24c-0.828,0-1.5-0.672-1.5-1.5V1.5c0-0.828,0.672-1.5,1.5-1.5s1.5,0.672,1.5,1.5v21.24
		C16.62,23.568,15.948,24.24,15.12,24.24z"/>
</g>
</svg>
