<?xml version="1.0" encoding="utf-8"?>
<!-- Generator: Adobe Illustrator 16.0.0, SVG Export Plug-In . SVG Version: 6.00 Build 0)  -->
<!DOCTYPE svg PUBLIC "-//W3C//DTD SVG 1.1//EN" "http://www.w3.org/Graphics/SVG/1.1/DTD/svg11.dtd">
<svg version="1.1" id="Layer_1" xmlns="http://www.w3.org/2000/svg" xmlns:xlink="http://www.w3.org/1999/xlink" x="0px" y="0px"
	 width="13.83px" height="13.83px" viewBox="0 0 13.83 13.83" enable-background="new 0 0 13.83 13.83" xml:space="preserve">
<g>
	<path fill="#2B6C9D" d="M6.915,1c3.262,0,5.915,2.653,5.915,5.915c0,3.262-2.653,5.915-5.915,5.915S1,10.176,1,6.915
		C1,3.653,3.653,1,6.915,1 M6.915,0C3.096,0,0,3.096,0,6.915c0,3.819,3.096,6.915,6.915,6.915s6.915-3.096,6.915-6.915
		C13.83,3.096,10.734,0,6.915,0L6.915,0z"/>
</g>
<g>
	<path fill="#2B6C9D" d="M9.112,11.638H5.136v-0.46c0.109-0.008,0.216-0.019,0.321-0.03c0.104-0.014,0.195-0.034,0.27-0.063
		c0.135-0.05,0.229-0.122,0.284-0.217c0.054-0.095,0.081-0.219,0.081-0.374V6.832c0-0.146-0.033-0.276-0.1-0.387
		C5.924,6.333,5.84,6.245,5.74,6.177c-0.076-0.05-0.19-0.099-0.343-0.145C5.244,5.986,5.104,5.957,4.979,5.944V5.485l3.083-0.164
		l0.095,0.094v4.996c0,0.146,0.031,0.271,0.094,0.374c0.063,0.103,0.153,0.18,0.271,0.229c0.084,0.038,0.176,0.071,0.277,0.101
		c0.101,0.03,0.205,0.051,0.314,0.062V11.638z M8.193,3.057c0,0.319-0.122,0.59-0.367,0.815C7.58,4.096,7.289,4.208,6.954,4.208
		c-0.34,0-0.632-0.112-0.878-0.336C5.831,3.647,5.708,3.375,5.708,3.057s0.123-0.591,0.368-0.818c0.246-0.227,0.538-0.34,0.878-0.34
		s0.631,0.113,0.874,0.34C8.072,2.465,8.193,2.738,8.193,3.057z"/>
</g>
</svg>
