<?xml version="1.0" encoding="utf-8"?>
<!-- Generator: Adobe Illustrator 16.0.0, SVG Export Plug-In . SVG Version: 6.00 Build 0)  -->
<!DOCTYPE svg PUBLIC "-//W3C//DTD SVG 1.1//EN" "http://www.w3.org/Graphics/SVG/1.1/DTD/svg11.dtd">
<svg version="1.1" id="Layer_1" xmlns="http://www.w3.org/2000/svg" xmlns:xlink="http://www.w3.org/1999/xlink" x="0px" y="0px"
	 width="940px" height="114px" viewBox="0 0 940 114" enable-background="new 0 0 940 114" xml:space="preserve">
<g>
	<g>
		<g>
			<g>
				<path fill="#4B83A5" d="M905.629,22.622h-0.004l0,0H101.549C91.2,9.116,74.913,0.396,56.605,0.396
					C25.358,0.396,0,25.74,0,56.999c0,31.261,25.357,56.604,56.604,56.604c18.308,0,34.595-8.722,44.942-22.229h804.078l0,0h0.003
					c18.965,0,34.372-15.394,34.372-34.377C940.003,38.014,924.594,22.622,905.629,22.622z"/>
			</g>
			<g>
				<path fill="#16556C" d="M103.425,33.062H905.03c13.196,0,23.937,10.736,23.937,23.937s-10.736,23.935-23.936,23.935H103.424
					L103.425,33.062z"/>
			</g>
			<g>
				<path fill="#FEFEFD" d="M56.604,103.161c-25.455,0-46.163-20.709-46.163-46.162c0-25.454,20.709-46.162,46.163-46.162
					c14.464,0,27.826,6.61,36.653,18.135l3.137,4.092h7.029v47.872h-7.03l-3.136,4.092C84.43,96.55,71.068,103.161,56.604,103.161z"
					/>
			</g>
		</g>
		
			<line fill="none" stroke="#4B83A5" stroke-width="4" stroke-linecap="round" stroke-linejoin="round" stroke-miterlimit="10" x1="230.82" y1="89.066" x2="230.82" y2="105.43"/>
		
			<line fill="none" stroke="#4B83A5" stroke-width="4" stroke-linecap="round" stroke-linejoin="round" stroke-miterlimit="10" x1="245.947" y1="89.066" x2="245.947" y2="97.417"/>
		
			<line fill="none" stroke="#4B83A5" stroke-width="4" stroke-linecap="round" stroke-linejoin="round" stroke-miterlimit="10" x1="261.073" y1="89.066" x2="261.073" y2="97.417"/>
		
			<line fill="none" stroke="#4B83A5" stroke-width="4" stroke-linecap="round" stroke-linejoin="round" stroke-miterlimit="10" x1="276.202" y1="89.066" x2="276.202" y2="97.417"/>
		
			<line fill="none" stroke="#4B83A5" stroke-width="4" stroke-linecap="round" stroke-linejoin="round" stroke-miterlimit="10" x1="291.329" y1="89.066" x2="291.329" y2="105.43"/>
		
			<line fill="none" stroke="#4B83A5" stroke-width="4" stroke-linecap="round" stroke-linejoin="round" stroke-miterlimit="10" x1="306.456" y1="89.066" x2="306.456" y2="97.417"/>
		
			<line fill="none" stroke="#4B83A5" stroke-width="4" stroke-linecap="round" stroke-linejoin="round" stroke-miterlimit="10" x1="321.585" y1="89.066" x2="321.585" y2="97.417"/>
		
			<line fill="none" stroke="#4B83A5" stroke-width="4" stroke-linecap="round" stroke-linejoin="round" stroke-miterlimit="10" x1="336.714" y1="89.066" x2="336.714" y2="97.417"/>
		
			<line fill="none" stroke="#4B83A5" stroke-width="4" stroke-linecap="round" stroke-linejoin="round" stroke-miterlimit="10" x1="351.84" y1="89.066" x2="351.84" y2="105.43"/>
		
			<line fill="none" stroke="#4B83A5" stroke-width="4" stroke-linecap="round" stroke-linejoin="round" stroke-miterlimit="10" x1="366.968" y1="89.066" x2="366.968" y2="97.417"/>
		
			<line fill="none" stroke="#4B83A5" stroke-width="4" stroke-linecap="round" stroke-linejoin="round" stroke-miterlimit="10" x1="382.094" y1="89.066" x2="382.094" y2="97.417"/>
		
			<line fill="none" stroke="#4B83A5" stroke-width="4" stroke-linecap="round" stroke-linejoin="round" stroke-miterlimit="10" x1="397.221" y1="89.066" x2="397.221" y2="97.417"/>
		
			<line fill="none" stroke="#4B83A5" stroke-width="4" stroke-linecap="round" stroke-linejoin="round" stroke-miterlimit="10" x1="412.348" y1="89.066" x2="412.348" y2="105.43"/>
		
			<line fill="none" stroke="#4B83A5" stroke-width="4" stroke-linecap="round" stroke-linejoin="round" stroke-miterlimit="10" x1="427.474" y1="89.066" x2="427.474" y2="97.417"/>
		
			<line fill="none" stroke="#4B83A5" stroke-width="4" stroke-linecap="round" stroke-linejoin="round" stroke-miterlimit="10" x1="442.604" y1="89.066" x2="442.604" y2="97.417"/>
		
			<line fill="none" stroke="#4B83A5" stroke-width="4" stroke-linecap="round" stroke-linejoin="round" stroke-miterlimit="10" x1="457.729" y1="89.066" x2="457.729" y2="97.417"/>
		
			<line fill="none" stroke="#4B83A5" stroke-width="4" stroke-linecap="round" stroke-linejoin="round" stroke-miterlimit="10" x1="472.858" y1="89.066" x2="472.858" y2="105.43"/>
		
			<line fill="none" stroke="#4B83A5" stroke-width="4" stroke-linecap="round" stroke-linejoin="round" stroke-miterlimit="10" x1="487.984" y1="89.066" x2="487.984" y2="97.417"/>
		
			<line fill="none" stroke="#4B83A5" stroke-width="4" stroke-linecap="round" stroke-linejoin="round" stroke-miterlimit="10" x1="503.112" y1="89.066" x2="503.112" y2="97.417"/>
		
			<line fill="none" stroke="#4B83A5" stroke-width="4" stroke-linecap="round" stroke-linejoin="round" stroke-miterlimit="10" x1="518.239" y1="89.066" x2="518.239" y2="97.417"/>
		
			<line fill="none" stroke="#4B83A5" stroke-width="4" stroke-linecap="round" stroke-linejoin="round" stroke-miterlimit="10" x1="533.367" y1="89.066" x2="533.367" y2="105.43"/>
		
			<line fill="none" stroke="#4B83A5" stroke-width="4" stroke-linecap="round" stroke-linejoin="round" stroke-miterlimit="10" x1="548.493" y1="89.066" x2="548.493" y2="97.417"/>
		
			<line fill="none" stroke="#4B83A5" stroke-width="4" stroke-linecap="round" stroke-linejoin="round" stroke-miterlimit="10" x1="563.619" y1="89.066" x2="563.619" y2="97.417"/>
		
			<line fill="none" stroke="#4B83A5" stroke-width="4" stroke-linecap="round" stroke-linejoin="round" stroke-miterlimit="10" x1="578.747" y1="89.066" x2="578.747" y2="97.417"/>
		
			<line fill="none" stroke="#4B83A5" stroke-width="4" stroke-linecap="round" stroke-linejoin="round" stroke-miterlimit="10" x1="593.879" y1="89.066" x2="593.879" y2="105.43"/>
		
			<line fill="none" stroke="#4B83A5" stroke-width="4" stroke-linecap="round" stroke-linejoin="round" stroke-miterlimit="10" x1="609.004" y1="89.066" x2="609.004" y2="97.417"/>
		
			<line fill="none" stroke="#4B83A5" stroke-width="4" stroke-linecap="round" stroke-linejoin="round" stroke-miterlimit="10" x1="624.133" y1="89.066" x2="624.133" y2="97.417"/>
		
			<line fill="none" stroke="#4B83A5" stroke-width="4" stroke-linecap="round" stroke-linejoin="round" stroke-miterlimit="10" x1="639.258" y1="89.066" x2="639.258" y2="97.417"/>
		
			<line fill="none" stroke="#4B83A5" stroke-width="4" stroke-linecap="round" stroke-linejoin="round" stroke-miterlimit="10" x1="654.385" y1="89.066" x2="654.385" y2="105.43"/>
		
			<line fill="none" stroke="#4B83A5" stroke-width="4" stroke-linecap="round" stroke-linejoin="round" stroke-miterlimit="10" x1="669.512" y1="89.066" x2="669.512" y2="97.417"/>
		
			<line fill="none" stroke="#4B83A5" stroke-width="4" stroke-linecap="round" stroke-linejoin="round" stroke-miterlimit="10" x1="684.639" y1="89.066" x2="684.639" y2="97.417"/>
		
			<line fill="none" stroke="#4B83A5" stroke-width="4" stroke-linecap="round" stroke-linejoin="round" stroke-miterlimit="10" x1="699.767" y1="89.066" x2="699.767" y2="97.417"/>
		
			<line fill="none" stroke="#4B83A5" stroke-width="4" stroke-linecap="round" stroke-linejoin="round" stroke-miterlimit="10" x1="714.895" y1="89.066" x2="714.895" y2="105.43"/>
		
			<line fill="none" stroke="#4B83A5" stroke-width="4" stroke-linecap="round" stroke-linejoin="round" stroke-miterlimit="10" x1="730.021" y1="89.066" x2="730.021" y2="97.417"/>
		
			<line fill="none" stroke="#4B83A5" stroke-width="4" stroke-linecap="round" stroke-linejoin="round" stroke-miterlimit="10" x1="745.148" y1="89.066" x2="745.148" y2="97.417"/>
		
			<line fill="none" stroke="#4B83A5" stroke-width="4" stroke-linecap="round" stroke-linejoin="round" stroke-miterlimit="10" x1="760.276" y1="89.066" x2="760.276" y2="97.417"/>
		
			<line fill="none" stroke="#4B83A5" stroke-width="4" stroke-linecap="round" stroke-linejoin="round" stroke-miterlimit="10" x1="775.405" y1="89.066" x2="775.405" y2="105.43"/>
		
			<line fill="none" stroke="#4B83A5" stroke-width="4" stroke-linecap="round" stroke-linejoin="round" stroke-miterlimit="10" x1="790.531" y1="89.066" x2="790.531" y2="97.417"/>
		
			<line fill="none" stroke="#4B83A5" stroke-width="4" stroke-linecap="round" stroke-linejoin="round" stroke-miterlimit="10" x1="805.658" y1="89.066" x2="805.658" y2="97.417"/>
		
			<line fill="none" stroke="#4B83A5" stroke-width="4" stroke-linecap="round" stroke-linejoin="round" stroke-miterlimit="10" x1="820.785" y1="89.066" x2="820.785" y2="97.417"/>
		
			<line fill="none" stroke="#4B83A5" stroke-width="4" stroke-linecap="round" stroke-linejoin="round" stroke-miterlimit="10" x1="835.912" y1="89.066" x2="835.912" y2="105.43"/>
		
			<line fill="none" stroke="#4B83A5" stroke-width="4" stroke-linecap="round" stroke-linejoin="round" stroke-miterlimit="10" x1="851.038" y1="89.066" x2="851.038" y2="97.417"/>
		
			<line fill="none" stroke="#4B83A5" stroke-width="4" stroke-linecap="round" stroke-linejoin="round" stroke-miterlimit="10" x1="866.17" y1="89.066" x2="866.17" y2="97.417"/>
		
			<line fill="none" stroke="#4B83A5" stroke-width="4" stroke-linecap="round" stroke-linejoin="round" stroke-miterlimit="10" x1="881.296" y1="89.066" x2="881.296" y2="97.417"/>
		
			<line fill="none" stroke="#4B83A5" stroke-width="4" stroke-linecap="round" stroke-linejoin="round" stroke-miterlimit="10" x1="896.424" y1="89.066" x2="896.424" y2="105.43"/>
	</g>
	<g enable-background="new    ">
		<path fill="#63A3C2" d="M370.19,51.925c0.961,0,1.793,0.176,2.494,0.526c0.701,0.35,1.329,0.949,1.883,1.797h0.073
			c-0.049-1.027-0.073-2.033-0.073-3.02v-4.781h1.198v19.024h-0.795l-0.306-2.029h-0.098c-1.011,1.516-2.462,2.273-4.353,2.273
			c-1.834,0-3.236-0.57-4.206-1.711c-0.97-1.142-1.455-2.804-1.455-4.988c0-2.299,0.48-4.056,1.442-5.27
			C366.958,52.532,368.356,51.925,370.19,51.925z M370.19,53.025c-1.451,0-2.541,0.51-3.271,1.528s-1.094,2.498-1.094,4.438
			c0,3.766,1.463,5.648,4.389,5.648c1.5,0,2.6-0.437,3.301-1.309c0.701-0.872,1.051-2.311,1.051-4.315v-0.208
			c0-2.055-0.344-3.531-1.033-4.433C372.845,53.476,371.73,53.025,370.19,53.025z"/>
		<path fill="#63A3C2" d="M385.46,51.925c0.562,0,1.166,0.058,1.81,0.171l-0.232,1.162c-0.554-0.139-1.129-0.208-1.724-0.208
			c-1.133,0-2.062,0.481-2.788,1.442c-0.726,0.962-1.088,2.177-1.088,3.644v7.336h-1.21v-13.29h1.027l0.123,2.396h0.085
			c0.546-0.979,1.129-1.665,1.749-2.061C383.83,52.123,384.58,51.925,385.46,51.925z"/>
		<path fill="#63A3C2" d="M398.041,65.472l-0.306-2.103h-0.098c-0.668,0.855-1.355,1.461-2.06,1.815
			c-0.705,0.354-1.539,0.531-2.5,0.531c-1.304,0-2.319-0.334-3.044-1.002c-0.726-0.669-1.088-1.594-1.088-2.775
			c0-1.296,0.54-2.303,1.62-3.021c1.08-0.717,2.643-1.096,4.688-1.137l2.531-0.073v-0.88c0-1.264-0.256-2.218-0.77-2.861
			s-1.341-0.966-2.482-0.966c-1.231,0-2.506,0.342-3.827,1.027l-0.453-1.052c1.459-0.685,2.902-1.027,4.328-1.027
			c1.459,0,2.549,0.379,3.271,1.138c0.721,0.758,1.082,1.939,1.082,3.545v8.84H398.041z M393.15,64.616
			c1.418,0,2.537-0.405,3.356-1.217c0.819-0.811,1.229-1.938,1.229-3.381v-1.308l-2.323,0.098c-1.867,0.09-3.197,0.381-3.992,0.874
			c-0.794,0.493-1.192,1.262-1.192,2.305c0,0.831,0.255,1.478,0.764,1.938C391.502,64.386,392.221,64.616,393.15,64.616z"/>
		<path fill="#63A3C2" d="M413.605,52.182v0.844l-2.751,0.171c0.733,0.913,1.1,1.916,1.1,3.008c0,1.28-0.426,2.317-1.277,3.111
			c-0.852,0.795-1.995,1.192-3.43,1.192c-0.603,0-1.027-0.024-1.271-0.073c-0.481,0.253-0.848,0.55-1.101,0.893
			c-0.252,0.342-0.379,0.705-0.379,1.088c0,0.424,0.161,0.733,0.483,0.93c0.322,0.195,0.862,0.293,1.62,0.293h2.323
			c1.443,0,2.547,0.292,3.313,0.874c0.766,0.583,1.149,1.444,1.149,2.586c0,1.402-0.568,2.484-1.706,3.246s-2.757,1.144-4.86,1.144
			c-1.671,0-2.965-0.322-3.882-0.966c-0.917-0.645-1.375-1.541-1.375-2.69c0-0.913,0.283-1.671,0.85-2.273
			c0.566-0.604,1.334-1.015,2.305-1.235c-0.399-0.171-0.719-0.413-0.96-0.728c-0.24-0.313-0.36-0.674-0.36-1.082
			c0-0.888,0.566-1.671,1.699-2.348c-0.774-0.317-1.377-0.816-1.81-1.497s-0.648-1.461-0.648-2.342c0-1.328,0.422-2.394,1.266-3.197
			c0.844-0.803,1.982-1.204,3.417-1.204c0.872,0,1.549,0.086,2.03,0.257H413.605z M402.846,67.722c0,1.825,1.357,2.738,4.071,2.738
			c3.488,0,5.233-1.112,5.233-3.338c0-0.799-0.273-1.377-0.819-1.736c-0.546-0.358-1.43-0.538-2.653-0.538h-2.176
			C404.064,64.848,402.846,65.806,402.846,67.722z M403.861,56.326c0,1.027,0.312,1.824,0.936,2.391s1.457,0.85,2.5,0.85
			c1.108,0,1.958-0.281,2.549-0.844c0.591-0.562,0.886-1.377,0.886-2.445c0-1.133-0.304-1.982-0.911-2.549
			c-0.607-0.566-1.457-0.85-2.549-0.85c-1.06,0-1.893,0.304-2.5,0.91C404.165,54.396,403.861,55.242,403.861,56.326z"/>
		<path fill="#63A3C2" d="M426.345,64.641c0.766,0,1.435-0.065,2.005-0.196v0.979c-0.587,0.195-1.264,0.293-2.03,0.293
			c-1.173,0-2.04-0.313-2.598-0.941c-0.559-0.627-0.838-1.613-0.838-2.958v-8.583h-1.968v-0.709l1.968-0.551l0.611-3.008h0.624
			v3.216h3.9v1.052h-3.9v8.411c0,1.02,0.179,1.773,0.538,2.262C425.016,64.396,425.579,64.641,426.345,64.641z"/>
		<path fill="#63A3C2" d="M442.215,58.809c0,2.168-0.526,3.861-1.577,5.08c-1.052,1.219-2.502,1.827-4.353,1.827
			c-1.166,0-2.192-0.281-3.081-0.843c-0.889-0.562-1.569-1.37-2.042-2.421c-0.473-1.052-0.709-2.267-0.709-3.644
			c0-2.168,0.525-3.857,1.577-5.068c1.051-1.21,2.494-1.815,4.328-1.815c1.826,0,3.258,0.613,4.297,1.84
			C441.695,54.992,442.215,56.673,442.215,58.809z M431.725,58.809c0,1.826,0.401,3.25,1.204,4.272
			c0.803,1.023,1.938,1.535,3.405,1.535c1.467,0,2.602-0.512,3.405-1.535c0.803-1.022,1.204-2.446,1.204-4.272
			c0-1.834-0.405-3.257-1.216-4.268c-0.811-1.01-1.95-1.516-3.417-1.516c-1.467,0-2.598,0.503-3.393,1.51
			C432.122,55.542,431.725,56.967,431.725,58.809z"/>
		<path fill="#63A3C2" d="M457.705,65.716c-1.899,0-3.387-0.599-4.462-1.797c-1.076-1.198-1.614-2.869-1.614-5.013
			c0-2.201,0.558-3.914,1.675-5.142c1.117-1.227,2.645-1.84,4.585-1.84c1.149,0,2.25,0.2,3.301,0.6l-0.33,1.075
			c-1.149-0.383-2.147-0.574-2.995-0.574c-1.63,0-2.865,0.503-3.705,1.51c-0.84,1.007-1.259,2.456-1.259,4.347
			c0,1.793,0.419,3.197,1.259,4.212c0.839,1.015,2.013,1.522,3.521,1.522c1.206,0,2.327-0.216,3.362-0.648v1.125
			C460.195,65.509,459.083,65.716,457.705,65.716z"/>
		<path fill="#63A3C2" d="M473.562,65.472v-8.619c0-1.337-0.281-2.309-0.844-2.916c-0.562-0.607-1.434-0.911-2.616-0.911
			c-1.589,0-2.753,0.401-3.491,1.204s-1.106,2.105-1.106,3.906v7.336h-1.21V46.447h1.21V52.5l-0.061,1.699h0.085
			c0.497-0.799,1.125-1.378,1.883-1.736c0.758-0.358,1.7-0.538,2.824-0.538c3.016,0,4.524,1.618,4.524,4.854v8.693H473.562z"/>
		<path fill="#63A3C2" d="M487.134,65.472l-0.306-2.103h-0.098c-0.668,0.855-1.355,1.461-2.061,1.815s-1.538,0.531-2.5,0.531
			c-1.305,0-2.318-0.334-3.045-1.002c-0.725-0.669-1.088-1.594-1.088-2.775c0-1.296,0.541-2.303,1.621-3.021
			c1.079-0.717,2.643-1.096,4.688-1.137l2.531-0.073v-0.88c0-1.264-0.256-2.218-0.77-2.861s-1.342-0.966-2.482-0.966
			c-1.23,0-2.506,0.342-3.826,1.027l-0.453-1.052c1.459-0.685,2.902-1.027,4.328-1.027c1.459,0,2.549,0.379,3.271,1.138
			c0.722,0.758,1.082,1.939,1.082,3.545v8.84H487.134z M482.243,64.616c1.419,0,2.537-0.405,3.356-1.217
			c0.818-0.811,1.229-1.938,1.229-3.381v-1.308l-2.322,0.098c-1.867,0.09-3.197,0.381-3.992,0.874s-1.192,1.262-1.192,2.305
			c0,0.831,0.255,1.478,0.765,1.938C480.595,64.386,481.314,64.616,482.243,64.616z"/>
		<path fill="#63A3C2" d="M501.598,65.472v-8.619c0-1.337-0.281-2.309-0.844-2.916s-1.435-0.911-2.616-0.911
			c-1.589,0-2.753,0.401-3.491,1.204c-0.737,0.803-1.105,2.105-1.105,3.906v7.336h-1.211v-13.29h1.027l0.232,1.822h0.072
			c0.865-1.386,2.4-2.079,4.609-2.079c3.016,0,4.524,1.618,4.524,4.854v8.693H501.598z"/>
		<path fill="#63A3C2" d="M517.468,52.182v0.844l-2.751,0.171c0.733,0.913,1.1,1.916,1.1,3.008c0,1.28-0.426,2.317-1.277,3.111
			c-0.852,0.795-1.994,1.192-3.43,1.192c-0.603,0-1.026-0.024-1.271-0.073c-0.48,0.253-0.848,0.55-1.1,0.893
			c-0.253,0.342-0.379,0.705-0.379,1.088c0,0.424,0.16,0.733,0.482,0.93c0.322,0.195,0.862,0.293,1.62,0.293h2.323
			c1.442,0,2.547,0.292,3.312,0.874c0.767,0.583,1.15,1.444,1.15,2.586c0,1.402-0.568,2.484-1.706,3.246s-2.757,1.144-4.86,1.144
			c-1.67,0-2.965-0.322-3.881-0.966c-0.918-0.645-1.376-1.541-1.376-2.69c0-0.913,0.283-1.671,0.85-2.273
			c0.566-0.604,1.335-1.015,2.305-1.235c-0.399-0.171-0.72-0.413-0.96-0.728c-0.24-0.313-0.36-0.674-0.36-1.082
			c0-0.888,0.566-1.671,1.699-2.348c-0.774-0.317-1.378-0.816-1.81-1.497s-0.648-1.461-0.648-2.342c0-1.328,0.422-2.394,1.266-3.197
			c0.844-0.803,1.982-1.204,3.418-1.204c0.871,0,1.549,0.086,2.029,0.257H517.468z M506.709,67.722c0,1.825,1.356,2.738,4.07,2.738
			c3.488,0,5.233-1.112,5.233-3.338c0-0.799-0.273-1.377-0.819-1.736c-0.546-0.358-1.43-0.538-2.652-0.538h-2.177
			C507.927,64.848,506.709,65.806,506.709,67.722z M507.723,56.326c0,1.027,0.312,1.824,0.936,2.391
			c0.624,0.566,1.457,0.85,2.5,0.85c1.109,0,1.959-0.281,2.55-0.844s0.886-1.377,0.886-2.445c0-1.133-0.303-1.982-0.91-2.549
			s-1.457-0.85-2.549-0.85c-1.061,0-1.894,0.304-2.5,0.91C508.027,54.396,507.723,55.242,507.723,56.326z"/>
		<path fill="#63A3C2" d="M525.561,65.716c-1.932,0-3.438-0.595-4.518-1.784c-1.08-1.19-1.619-2.857-1.619-5.001
			c0-2.119,0.521-3.816,1.564-5.092c1.043-1.276,2.449-1.914,4.219-1.914c1.564,0,2.799,0.546,3.704,1.639
			c0.905,1.092,1.357,2.575,1.357,4.45v0.979h-9.573c0.016,1.825,0.441,3.22,1.277,4.181c0.836,0.962,2.031,1.443,3.588,1.443
			c0.759,0,1.426-0.054,2-0.159c0.574-0.106,1.302-0.334,2.182-0.685v1.101c-0.75,0.325-1.442,0.548-2.078,0.666
			S526.327,65.716,525.561,65.716z M525.207,53.001c-1.28,0-2.307,0.422-3.082,1.266c-0.773,0.844-1.227,2.06-1.356,3.649h8.216
			c0-1.541-0.334-2.745-1.002-3.613C527.313,53.435,526.389,53.001,525.207,53.001z"/>
		<path fill="#63A3C2" d="M543.949,64.641c0.766,0,1.435-0.065,2.006-0.196v0.979c-0.588,0.195-1.264,0.293-2.03,0.293
			c-1.173,0-2.04-0.313-2.598-0.941c-0.559-0.627-0.838-1.613-0.838-2.958v-8.583h-1.968v-0.709l1.968-0.551l0.611-3.008h0.624
			v3.216h3.9v1.052h-3.9v8.411c0,1.02,0.179,1.773,0.537,2.262C542.621,64.396,543.184,64.641,543.949,64.641z"/>
		<path fill="#63A3C2" d="M558.096,65.472v-8.619c0-1.337-0.281-2.309-0.844-2.916s-1.436-0.911-2.617-0.911
			c-1.589,0-2.752,0.401-3.49,1.204s-1.106,2.105-1.106,3.906v7.336h-1.21V46.447h1.21V52.5l-0.062,1.699h0.086
			c0.497-0.799,1.125-1.378,1.883-1.736s1.699-0.538,2.824-0.538c3.016,0,4.523,1.618,4.523,4.854v8.693H558.096z"/>
		<path fill="#63A3C2" d="M568.965,65.716c-1.932,0-3.438-0.595-4.518-1.784c-1.08-1.19-1.62-2.857-1.62-5.001
			c0-2.119,0.521-3.816,1.565-5.092c1.043-1.276,2.449-1.914,4.217-1.914c1.565,0,2.801,0.546,3.705,1.639
			c0.904,1.092,1.357,2.575,1.357,4.45v0.979h-9.573c0.017,1.825,0.442,3.22,1.277,4.181c0.835,0.962,2.032,1.443,3.589,1.443
			c0.758,0,1.424-0.054,1.998-0.159c0.575-0.106,1.303-0.334,2.184-0.685v1.101c-0.75,0.325-1.443,0.548-2.079,0.666
			S569.73,65.716,568.965,65.716z M568.609,53.001c-1.279,0-2.307,0.422-3.08,1.266c-0.775,0.844-1.227,2.06-1.357,3.649h8.216
			c0-1.541-0.334-2.745-1.003-3.613C570.717,53.435,569.792,53.001,568.609,53.001z"/>
		<path fill="#63A3C2" d="M587.353,64.641c0.767,0,1.435-0.065,2.005-0.196v0.979c-0.586,0.195-1.264,0.293-2.029,0.293
			c-1.174,0-2.039-0.313-2.598-0.941c-0.559-0.627-0.838-1.613-0.838-2.958v-8.583h-1.969v-0.709l1.969-0.551l0.611-3.008h0.623
			v3.216h3.9v1.052h-3.9v8.411c0,1.02,0.18,1.773,0.539,2.262C586.023,64.396,586.586,64.641,587.353,64.641z"/>
		<path fill="#63A3C2" d="M597.598,65.716c-1.932,0-3.438-0.595-4.518-1.784c-1.08-1.19-1.619-2.857-1.619-5.001
			c0-2.119,0.521-3.816,1.564-5.092c1.043-1.276,2.449-1.914,4.219-1.914c1.564,0,2.799,0.546,3.704,1.639
			c0.905,1.092,1.357,2.575,1.357,4.45v0.979h-9.573c0.016,1.825,0.441,3.22,1.277,4.181c0.836,0.962,2.031,1.443,3.588,1.443
			c0.759,0,1.426-0.054,2-0.159c0.574-0.106,1.302-0.334,2.182-0.685v1.101c-0.75,0.325-1.442,0.548-2.078,0.666
			S598.364,65.716,597.598,65.716z M597.244,53.001c-1.28,0-2.307,0.422-3.082,1.266c-0.773,0.844-1.227,2.06-1.356,3.649h8.216
			c0-1.541-0.334-2.745-1.002-3.613C599.351,53.435,598.426,53.001,597.244,53.001z"/>
		<path fill="#63A3C2" d="M622.576,65.472v-8.718c0-1.296-0.252-2.241-0.758-2.836s-1.279-0.893-2.322-0.893
			c-1.361,0-2.369,0.375-3.021,1.125c-0.652,0.75-0.978,1.928-0.978,3.533v7.788h-1.235v-9.084c0-2.241-1.026-3.362-3.081-3.362
			c-1.395,0-2.408,0.405-3.045,1.217c-0.635,0.811-0.953,2.108-0.953,3.894v7.336h-1.211v-13.29h1.003l0.257,1.822h0.073
			c0.367-0.661,0.889-1.172,1.565-1.535c0.676-0.362,1.422-0.544,2.237-0.544c2.095,0,3.439,0.787,4.034,2.359h0.049
			c0.432-0.758,1.014-1.34,1.742-1.748c0.73-0.407,1.56-0.611,2.488-0.611c1.451,0,2.539,0.388,3.265,1.162s1.089,2.005,1.089,3.691
			v8.693H622.576z"/>
		<path fill="#63A3C2" d="M633.764,65.716c-2.047,0-3.538-0.766-4.475-2.298h-0.086l0.037,1.026
			c0.031,0.604,0.049,1.264,0.049,1.981v5.062h-1.211V52.182h1.027l0.232,1.896h0.072c0.914-1.435,2.373-2.152,4.378-2.152
			c1.793,0,3.16,0.589,4.102,1.767s1.412,2.892,1.412,5.142c0,2.185-0.495,3.878-1.485,5.08S635.475,65.716,633.764,65.716z
			 M633.738,64.641c1.361,0,2.416-0.506,3.161-1.517c0.746-1.011,1.118-2.425,1.118-4.242c0-3.904-1.41-5.856-4.229-5.856
			c-1.549,0-2.687,0.426-3.411,1.277c-0.726,0.853-1.088,2.24-1.088,4.163v0.392c0,2.078,0.348,3.562,1.045,4.45
			S632.166,64.641,633.738,64.641z"/>
		<path fill="#63A3C2" d="M648.35,65.716c-1.932,0-3.438-0.595-4.518-1.784c-1.08-1.19-1.62-2.857-1.62-5.001
			c0-2.119,0.521-3.816,1.565-5.092c1.043-1.276,2.449-1.914,4.217-1.914c1.565,0,2.801,0.546,3.705,1.639
			c0.904,1.092,1.357,2.575,1.357,4.45v0.979h-9.573c0.017,1.825,0.442,3.22,1.277,4.181c0.835,0.962,2.032,1.443,3.589,1.443
			c0.758,0,1.424-0.054,1.998-0.159c0.575-0.106,1.303-0.334,2.184-0.685v1.101c-0.75,0.325-1.443,0.548-2.079,0.666
			S649.115,65.716,648.35,65.716z M647.994,53.001c-1.279,0-2.307,0.422-3.08,1.266c-0.775,0.844-1.227,2.06-1.357,3.649h8.216
			c0-1.541-0.334-2.745-1.003-3.613C650.102,53.435,649.177,53.001,647.994,53.001z"/>
		<path fill="#63A3C2" d="M661.957,51.925c0.562,0,1.166,0.058,1.811,0.171l-0.232,1.162c-0.555-0.139-1.129-0.208-1.725-0.208
			c-1.133,0-2.062,0.481-2.787,1.442c-0.726,0.962-1.088,2.177-1.088,3.644v7.336h-1.211v-13.29h1.027l0.122,2.396h0.085
			c0.547-0.979,1.129-1.665,1.749-2.061C660.327,52.123,661.077,51.925,661.957,51.925z"/>
		<path fill="#63A3C2" d="M674.538,65.472l-0.306-2.103h-0.098c-0.668,0.855-1.355,1.461-2.061,1.815s-1.538,0.531-2.5,0.531
			c-1.305,0-2.318-0.334-3.045-1.002c-0.725-0.669-1.088-1.594-1.088-2.775c0-1.296,0.541-2.303,1.621-3.021
			c1.079-0.717,2.643-1.096,4.688-1.137l2.531-0.073v-0.88c0-1.264-0.256-2.218-0.77-2.861s-1.342-0.966-2.482-0.966
			c-1.23,0-2.506,0.342-3.826,1.027l-0.453-1.052c1.459-0.685,2.902-1.027,4.328-1.027c1.459,0,2.549,0.379,3.271,1.138
			c0.722,0.758,1.082,1.939,1.082,3.545v8.84H674.538z M669.647,64.616c1.419,0,2.537-0.405,3.356-1.217
			c0.818-0.811,1.229-1.938,1.229-3.381v-1.308l-2.322,0.098c-1.867,0.09-3.197,0.381-3.992,0.874s-1.192,1.262-1.192,2.305
			c0,0.831,0.255,1.478,0.765,1.938C667.999,64.386,668.719,64.616,669.647,64.616z"/>
		<path fill="#63A3C2" d="M683.243,64.641c0.767,0,1.435-0.065,2.005-0.196v0.979c-0.586,0.195-1.264,0.293-2.029,0.293
			c-1.174,0-2.039-0.313-2.598-0.941c-0.559-0.627-0.838-1.613-0.838-2.958v-8.583h-1.969v-0.709l1.969-0.551l0.611-3.008h0.623
			v3.216h3.9v1.052h-3.9v8.411c0,1.02,0.18,1.773,0.539,2.262C681.914,64.396,682.477,64.641,683.243,64.641z"/>
		<path fill="#63A3C2" d="M689.174,52.182v8.607c0,1.337,0.28,2.309,0.843,2.916s1.435,0.911,2.616,0.911
			c1.582,0,2.745-0.399,3.49-1.198c0.746-0.799,1.119-2.099,1.119-3.9v-7.336h1.198v13.29h-1.026l-0.221-1.834h-0.073
			c-0.864,1.386-2.4,2.078-4.609,2.078c-3.024,0-4.536-1.617-4.536-4.854v-8.681H689.174z"/>
		<path fill="#63A3C2" d="M708.123,51.925c0.562,0,1.166,0.058,1.811,0.171l-0.232,1.162c-0.555-0.139-1.129-0.208-1.725-0.208
			c-1.133,0-2.062,0.481-2.787,1.442c-0.726,0.962-1.088,2.177-1.088,3.644v7.336h-1.211v-13.29h1.027l0.122,2.396h0.085
			c0.547-0.979,1.129-1.665,1.749-2.061C706.493,52.123,707.243,51.925,708.123,51.925z"/>
		<path fill="#63A3C2" d="M718.002,65.716c-1.932,0-3.438-0.595-4.518-1.784c-1.08-1.19-1.619-2.857-1.619-5.001
			c0-2.119,0.521-3.816,1.564-5.092c1.043-1.276,2.449-1.914,4.219-1.914c1.564,0,2.799,0.546,3.704,1.639
			c0.905,1.092,1.357,2.575,1.357,4.45v0.979h-9.573c0.016,1.825,0.441,3.22,1.277,4.181c0.836,0.962,2.031,1.443,3.588,1.443
			c0.759,0,1.426-0.054,2-0.159c0.574-0.106,1.302-0.334,2.182-0.685v1.101c-0.75,0.325-1.442,0.548-2.078,0.666
			S718.769,65.716,718.002,65.716z M717.648,53.001c-1.28,0-2.307,0.422-3.082,1.266c-0.773,0.844-1.227,2.06-1.356,3.649h8.216
			c0-1.541-0.334-2.745-1.002-3.613C719.755,53.435,718.83,53.001,717.648,53.001z"/>
	</g>
</g>
</svg>
