<?xml version="1.0" encoding="utf-8"?>
<!-- Generator: Adobe Illustrator 16.0.0, SVG Export Plug-In . SVG Version: 6.00 Build 0)  -->
<!DOCTYPE svg PUBLIC "-//W3C//DTD SVG 1.1//EN" "http://www.w3.org/Graphics/SVG/1.1/DTD/svg11.dtd">
<svg version="1.1" id="Layer_1" xmlns="http://www.w3.org/2000/svg" xmlns:xlink="http://www.w3.org/1999/xlink" x="0px" y="0px"
	 width="940px" height="114px" viewBox="0 0 940 114" enable-background="new 0 0 940 114" xml:space="preserve">
<g>
	<g>
		<g>
			<g>
				<path fill="#4B83A5" d="M905.629,22.283h-0.004l0,0H101.549C91.2,8.777,74.913,0.057,56.605,0.057
					C25.358,0.057,0,25.401,0,56.66c0,31.261,25.357,56.604,56.604,56.604c18.308,0,34.595-8.721,44.942-22.229h804.078l0,0h0.003
					c18.965,0,34.372-15.393,34.372-34.377C940.003,37.674,924.594,22.283,905.629,22.283z"/>
			</g>
			<g>
				<path fill="#16556C" d="M103.425,32.723H905.03c13.196,0,23.937,10.737,23.937,23.937s-10.736,23.935-23.936,23.935H103.424
					L103.425,32.723z"/>
			</g>
			<g>
				<path fill="#FEFEFD" d="M56.604,102.822c-25.455,0-46.163-20.709-46.163-46.162c0-25.454,20.709-46.162,46.163-46.162
					c14.464,0,27.826,6.61,36.653,18.134l3.137,4.092h7.029v47.873h-7.03l-3.136,4.092C84.43,96.211,71.068,102.822,56.604,102.822z
					"/>
			</g>
		</g>
		
			<line fill="none" stroke="#4B83A5" stroke-width="4" stroke-linecap="round" stroke-linejoin="round" stroke-miterlimit="10" x1="230.82" y1="88.728" x2="230.82" y2="105.091"/>
		
			<line fill="none" stroke="#4B83A5" stroke-width="4" stroke-linecap="round" stroke-linejoin="round" stroke-miterlimit="10" x1="245.947" y1="88.728" x2="245.947" y2="97.078"/>
		
			<line fill="none" stroke="#4B83A5" stroke-width="4" stroke-linecap="round" stroke-linejoin="round" stroke-miterlimit="10" x1="261.073" y1="88.728" x2="261.073" y2="97.078"/>
		
			<line fill="none" stroke="#4B83A5" stroke-width="4" stroke-linecap="round" stroke-linejoin="round" stroke-miterlimit="10" x1="276.202" y1="88.728" x2="276.202" y2="97.078"/>
		
			<line fill="none" stroke="#4B83A5" stroke-width="4" stroke-linecap="round" stroke-linejoin="round" stroke-miterlimit="10" x1="291.329" y1="88.728" x2="291.329" y2="105.091"/>
		
			<line fill="none" stroke="#4B83A5" stroke-width="4" stroke-linecap="round" stroke-linejoin="round" stroke-miterlimit="10" x1="306.456" y1="88.728" x2="306.456" y2="97.078"/>
		
			<line fill="none" stroke="#4B83A5" stroke-width="4" stroke-linecap="round" stroke-linejoin="round" stroke-miterlimit="10" x1="321.585" y1="88.728" x2="321.585" y2="97.078"/>
		
			<line fill="none" stroke="#4B83A5" stroke-width="4" stroke-linecap="round" stroke-linejoin="round" stroke-miterlimit="10" x1="336.714" y1="88.728" x2="336.714" y2="97.078"/>
		
			<line fill="none" stroke="#4B83A5" stroke-width="4" stroke-linecap="round" stroke-linejoin="round" stroke-miterlimit="10" x1="351.84" y1="88.728" x2="351.84" y2="105.091"/>
		
			<line fill="none" stroke="#4B83A5" stroke-width="4" stroke-linecap="round" stroke-linejoin="round" stroke-miterlimit="10" x1="366.968" y1="88.728" x2="366.968" y2="97.078"/>
		
			<line fill="none" stroke="#4B83A5" stroke-width="4" stroke-linecap="round" stroke-linejoin="round" stroke-miterlimit="10" x1="382.094" y1="88.728" x2="382.094" y2="97.078"/>
		
			<line fill="none" stroke="#4B83A5" stroke-width="4" stroke-linecap="round" stroke-linejoin="round" stroke-miterlimit="10" x1="397.221" y1="88.728" x2="397.221" y2="97.078"/>
		
			<line fill="none" stroke="#4B83A5" stroke-width="4" stroke-linecap="round" stroke-linejoin="round" stroke-miterlimit="10" x1="412.348" y1="88.728" x2="412.348" y2="105.091"/>
		
			<line fill="none" stroke="#4B83A5" stroke-width="4" stroke-linecap="round" stroke-linejoin="round" stroke-miterlimit="10" x1="427.474" y1="88.728" x2="427.474" y2="97.078"/>
		
			<line fill="none" stroke="#4B83A5" stroke-width="4" stroke-linecap="round" stroke-linejoin="round" stroke-miterlimit="10" x1="442.603" y1="88.728" x2="442.603" y2="97.078"/>
		
			<line fill="none" stroke="#4B83A5" stroke-width="4" stroke-linecap="round" stroke-linejoin="round" stroke-miterlimit="10" x1="457.729" y1="88.728" x2="457.729" y2="97.078"/>
		
			<line fill="none" stroke="#4B83A5" stroke-width="4" stroke-linecap="round" stroke-linejoin="round" stroke-miterlimit="10" x1="472.858" y1="88.728" x2="472.858" y2="105.091"/>
		
			<line fill="none" stroke="#4B83A5" stroke-width="4" stroke-linecap="round" stroke-linejoin="round" stroke-miterlimit="10" x1="487.984" y1="88.728" x2="487.984" y2="97.078"/>
		
			<line fill="none" stroke="#4B83A5" stroke-width="4" stroke-linecap="round" stroke-linejoin="round" stroke-miterlimit="10" x1="503.112" y1="88.728" x2="503.112" y2="97.078"/>
		
			<line fill="none" stroke="#4B83A5" stroke-width="4" stroke-linecap="round" stroke-linejoin="round" stroke-miterlimit="10" x1="518.239" y1="88.728" x2="518.239" y2="97.078"/>
		
			<line fill="none" stroke="#4B83A5" stroke-width="4" stroke-linecap="round" stroke-linejoin="round" stroke-miterlimit="10" x1="533.367" y1="88.728" x2="533.367" y2="105.091"/>
		
			<line fill="none" stroke="#4B83A5" stroke-width="4" stroke-linecap="round" stroke-linejoin="round" stroke-miterlimit="10" x1="548.493" y1="88.728" x2="548.493" y2="97.078"/>
		
			<line fill="none" stroke="#4B83A5" stroke-width="4" stroke-linecap="round" stroke-linejoin="round" stroke-miterlimit="10" x1="563.619" y1="88.728" x2="563.619" y2="97.078"/>
		
			<line fill="none" stroke="#4B83A5" stroke-width="4" stroke-linecap="round" stroke-linejoin="round" stroke-miterlimit="10" x1="578.747" y1="88.728" x2="578.747" y2="97.078"/>
		
			<line fill="none" stroke="#4B83A5" stroke-width="4" stroke-linecap="round" stroke-linejoin="round" stroke-miterlimit="10" x1="593.879" y1="88.728" x2="593.879" y2="105.091"/>
		
			<line fill="none" stroke="#4B83A5" stroke-width="4" stroke-linecap="round" stroke-linejoin="round" stroke-miterlimit="10" x1="609.004" y1="88.728" x2="609.004" y2="97.078"/>
		
			<line fill="none" stroke="#4B83A5" stroke-width="4" stroke-linecap="round" stroke-linejoin="round" stroke-miterlimit="10" x1="624.133" y1="88.728" x2="624.133" y2="97.078"/>
		
			<line fill="none" stroke="#4B83A5" stroke-width="4" stroke-linecap="round" stroke-linejoin="round" stroke-miterlimit="10" x1="639.258" y1="88.728" x2="639.258" y2="97.078"/>
		
			<line fill="none" stroke="#4B83A5" stroke-width="4" stroke-linecap="round" stroke-linejoin="round" stroke-miterlimit="10" x1="654.385" y1="88.728" x2="654.385" y2="105.091"/>
		
			<line fill="none" stroke="#4B83A5" stroke-width="4" stroke-linecap="round" stroke-linejoin="round" stroke-miterlimit="10" x1="669.512" y1="88.728" x2="669.512" y2="97.078"/>
		
			<line fill="none" stroke="#4B83A5" stroke-width="4" stroke-linecap="round" stroke-linejoin="round" stroke-miterlimit="10" x1="684.639" y1="88.728" x2="684.639" y2="97.078"/>
		
			<line fill="none" stroke="#4B83A5" stroke-width="4" stroke-linecap="round" stroke-linejoin="round" stroke-miterlimit="10" x1="699.767" y1="88.728" x2="699.767" y2="97.078"/>
		
			<line fill="none" stroke="#4B83A5" stroke-width="4" stroke-linecap="round" stroke-linejoin="round" stroke-miterlimit="10" x1="714.895" y1="88.728" x2="714.895" y2="105.091"/>
		
			<line fill="none" stroke="#4B83A5" stroke-width="4" stroke-linecap="round" stroke-linejoin="round" stroke-miterlimit="10" x1="730.021" y1="88.728" x2="730.021" y2="97.078"/>
		
			<line fill="none" stroke="#4B83A5" stroke-width="4" stroke-linecap="round" stroke-linejoin="round" stroke-miterlimit="10" x1="745.149" y1="88.728" x2="745.149" y2="97.078"/>
		
			<line fill="none" stroke="#4B83A5" stroke-width="4" stroke-linecap="round" stroke-linejoin="round" stroke-miterlimit="10" x1="760.276" y1="88.728" x2="760.276" y2="97.078"/>
		
			<line fill="none" stroke="#4B83A5" stroke-width="4" stroke-linecap="round" stroke-linejoin="round" stroke-miterlimit="10" x1="775.405" y1="88.728" x2="775.405" y2="105.091"/>
		
			<line fill="none" stroke="#4B83A5" stroke-width="4" stroke-linecap="round" stroke-linejoin="round" stroke-miterlimit="10" x1="790.531" y1="88.728" x2="790.531" y2="97.078"/>
		
			<line fill="none" stroke="#4B83A5" stroke-width="4" stroke-linecap="round" stroke-linejoin="round" stroke-miterlimit="10" x1="805.658" y1="88.728" x2="805.658" y2="97.078"/>
		
			<line fill="none" stroke="#4B83A5" stroke-width="4" stroke-linecap="round" stroke-linejoin="round" stroke-miterlimit="10" x1="820.785" y1="88.728" x2="820.785" y2="97.078"/>
		
			<line fill="none" stroke="#4B83A5" stroke-width="4" stroke-linecap="round" stroke-linejoin="round" stroke-miterlimit="10" x1="835.912" y1="88.728" x2="835.912" y2="105.091"/>
		
			<line fill="none" stroke="#4B83A5" stroke-width="4" stroke-linecap="round" stroke-linejoin="round" stroke-miterlimit="10" x1="851.038" y1="88.728" x2="851.038" y2="97.078"/>
		
			<line fill="none" stroke="#4B83A5" stroke-width="4" stroke-linecap="round" stroke-linejoin="round" stroke-miterlimit="10" x1="866.17" y1="88.728" x2="866.17" y2="97.078"/>
		
			<line fill="none" stroke="#4B83A5" stroke-width="4" stroke-linecap="round" stroke-linejoin="round" stroke-miterlimit="10" x1="881.296" y1="88.728" x2="881.296" y2="97.078"/>
		
			<line fill="none" stroke="#4B83A5" stroke-width="4" stroke-linecap="round" stroke-linejoin="round" stroke-miterlimit="10" x1="896.424" y1="88.728" x2="896.424" y2="105.091"/>
	</g>
</g>
</svg>
