<?xml version="1.0" encoding="UTF-8" standalone="no"?>
<svg width="24px" height="19px" viewBox="0 0 24 19" version="1.1" xmlns="http://www.w3.org/2000/svg" xmlns:xlink="http://www.w3.org/1999/xlink" xmlns:sketch="http://www.bohemiancoding.com/sketch/ns">
    <!-- Generator: Sketch 3.3.2 (12043) - http://www.bohemiancoding.com/sketch -->
    <title>email copy</title>
    <desc>Created with Sketch.</desc>
    <defs></defs>
    <g id="Page-1" stroke="none" stroke-width="1" fill="none" fill-rule="evenodd" sketch:type="MSPage">
        <g id="Tablet-Portrait" sketch:type="MSArtboardGroup" transform="translate(-440.000000, -385.000000)">
            <g id="V2" sketch:type="MSLayerGroup" transform="translate(24.000000, 150.000000)">
                <g id="FB+Email" transform="translate(239.000000, 225.000000)" sketch:type="MSShapeGroup">
                    <g id="Botao-email" transform="translate(136.000000, 0.000000)">
                        <g id="email-copy" transform="translate(41.000000, 8.000000)">
                            <rect id="Rectangle-32" x="0" y="0" width="24" height="24"></rect>
                            <path d="M2.4,2 C1.08,2 0.012,3.06875 0.012,4.375 L0,18.625 C0,19.93125 1.08,21 2.4,21 L21.6,21 C22.92,21 24,19.93125 24,18.625 L24,4.375 C24,3.06875 22.92,2 21.6,2 L2.4,2 Z M21.6,6.8 L12,12.8 L2.4,6.8 L2.4,4.4 L12,10.4 L21.6,4.4 L21.6,6.8 L21.6,6.8 Z" id="Imported-Layers" fill="#3D6E93"></path>
                        </g>
                    </g>
                </g>
            </g>
        </g>
    </g>
</svg>