<?xml version="1.0" encoding="UTF-8" standalone="no"?>
<svg width="171px" height="173px" viewBox="0 0 171 173" version="1.1" xmlns="http://www.w3.org/2000/svg" xmlns:xlink="http://www.w3.org/1999/xlink" xmlns:sketch="http://www.bohemiancoding.com/sketch/ns">
    <!-- Generator: Sketch 3.3.2 (12043) - http://www.bohemiancoding.com/sketch -->
    <title>Medal v2 Copy</title>
    <desc>Created with Sketch.</desc>
    <defs></defs>
    <g id="Page-1" stroke="none" stroke-width="1" fill="none" fill-rule="evenodd" sketch:type="MSPage">
        <g id="Tablet-Portrait" sketch:type="MSArtboardGroup" transform="translate(-61.000000, -245.000000)">
            <g id="V2" sketch:type="MSLayerGroup" transform="translate(24.000000, 150.000000)">
                <g id="Medal-v2-Copy" transform="translate(45.000000, 100.000000)">
                    <circle id="Oval-1" stroke="#3D6E93" stroke-width="5" fill="#FFFFFF" sketch:type="MSShapeGroup" cx="77.2413793" cy="77.2413793" r="77.2413793"></circle>
                    <g id="local-copy" transform="translate(42.461747, 30.000000)" sketch:type="MSShapeGroup">
                        <path d="M35.0024947,0.64871576 C16.0789931,0.64871576 0.773978571,15.8738781 0.773978571,34.6986483 C0.773978571,60.2366438 35.0024947,97.9342374 35.0024947,97.9342374 C35.0024947,97.9342374 69.2310109,60.2366438 69.2310109,34.6986483 C69.2310109,15.8738781 53.9259963,0.64871576 35.0024947,0.64871576 L35.0024947,0.64871576 Z M35.0024947,46.8593386 C28.2551581,46.8593386 22.7780247,41.4118736 22.7780247,34.6986483 C22.7780247,27.9865153 28.2551581,22.5379581 35.0024947,22.5379581 C41.7509292,22.5379581 47.2269648,27.9865153 47.2269648,34.6986483 C47.2269648,41.4118736 41.7509292,46.8593386 35.0024947,46.8593386 L35.0024947,46.8593386 Z" id="Fill-1" fill-opacity="0.349999994" fill="#C5C5C5"></path>
                        <path d="M0.773978571,34.6986483 C0.773978571,60.2366438 35.0024947,97.9342374 35.0024947,97.9342374 C35.0024947,97.9342374 69.2310109,60.2366438 69.2310109,34.6986483 C69.2310109,28.3611104 67.8389473,22.2136003 64.4729639,17.3536926 C64.4729639,17.3536926 54.0586356,23.6838984 36.1701646,17.3725644 C18.2816937,11.0612304 5.50897088,17.3930087 5.50897088,17.3930087 C2.49978611,22.4626023 0.773978571,28.3774921 0.773978571,34.6986483 Z M35.0024947,46.8593386 C28.2551581,46.8593386 22.7780247,41.4118736 22.7780247,34.6986483 C22.7780247,27.9865153 28.2551581,22.5379581 35.0024947,22.5379581 C41.7509292,22.5379581 47.2269648,27.9865153 47.2269648,34.6986483 C47.2269648,41.4118736 41.7509292,46.8593386 35.0024947,46.8593386 L35.0024947,46.8593386 Z" id="Fill-2" fill="#D52D3D"></path>
                        <path d="M35.0024947,0.64871576 C16.0789931,0.64871576 0.773978571,15.8738781 0.773978571,34.6986483 C0.773978571,60.2366438 35.0024947,97.9342374 35.0024947,97.9342374 C35.0024947,97.9342374 69.2310109,60.2366438 69.2310109,34.6986483 C69.2310109,15.8738781 53.9259963,0.64871576 35.0024947,0.64871576 L35.0024947,0.64871576 Z M35.0024947,46.8593386 C28.2551581,46.8593386 22.7780247,41.4118736 22.7780247,34.6986483 C22.7780247,27.9865153 28.2551581,22.5379581 35.0024947,22.5379581 C41.7509292,22.5379581 47.2269648,27.9865153 47.2269648,34.6986483 C47.2269648,41.4118736 41.7509292,46.8593386 35.0024947,46.8593386 L35.0024947,46.8593386 Z" id="Stroke-3" stroke="#FFFFFF" stroke-width="2" stroke-linecap="round" stroke-linejoin="round"></path>
                    </g>
                    <g id="Level" transform="translate(39.724138, 132.413793)">
                        <path d="M1.68593219,16.7249485 C0.772018428,15.1420034 0.775022359,12.5703394 1.68593219,10.9925973 L6.13443866,3.28755806 C7.04835242,1.704613 9.26862419,0.421382476 11.0921658,0.421382476 L64.3343392,0.421382476 C66.1585025,0.421382476 68.3811564,1.70981596 69.2920663,3.28755806 L73.7405727,10.9925973 C74.6544865,12.5755423 74.6514826,15.1472063 73.7405727,16.7249485 L69.2920663,24.4299877 C68.3781525,26.0129327 66.1578807,27.2961633 64.3343392,27.2961633 L11.0921658,27.2961633 C9.26800244,27.2961633 7.04534849,26.0077298 6.13443866,24.4299877 L1.68593219,16.7249485 L1.68593219,16.7249485 Z" id="Polygon-1" fill="#3D6E93" sketch:type="MSShapeGroup"></path>
                        <text id="Level-5" sketch:type="MSTextLayer" font-family="Open Sans" font-size="14" font-weight="normal" sketch:alignment="middle" fill="#FFFFFF">
                            <tspan x="15.6300007" y="18.3103448">Level </tspan>
                            <tspan x="52.5167194" y="18.3103448" font-weight="bold">5</tspan>
                        </text>
                    </g>
                </g>
            </g>
        </g>
    </g>
</svg>