<?xml version="1.0" encoding="utf-8"?>
<!-- Generator: Adobe Illustrator 17.0.0, SVG Export Plug-In . SVG Version: 6.00 Build 0)  -->
<!DOCTYPE svg PUBLIC "-//W3C//DTD SVG 1.1//EN" "http://www.w3.org/Graphics/SVG/1.1/DTD/svg11.dtd">
<svg version="1.1" id="Layer_1" xmlns="http://www.w3.org/2000/svg" xmlns:xlink="http://www.w3.org/1999/xlink" x="0px" y="0px"
	 width="55px" height="55px" viewBox="0 0 55 55" enable-background="new 0 0 55 55" xml:space="preserve">
<path fill="#DC3F54" d="M16.152,47.777l-2.386-3.489c-0.178-0.273-0.381-0.545-0.575-0.815c-0.123-0.163-0.24-0.32-0.356-0.49
	l-1.882-2.58c-0.188-0.262-0.392-0.528-0.596-0.785c-0.123-0.168-0.247-0.332-0.372-0.496l-0.979-1.274
	c-0.568-0.747-1.204-1.555-1.997-2.532l-0.405-0.506c-0.528-0.655-1.076-1.336-1.627-1.986l-1.025-1.227
	c-0.223-0.28-0.465-0.554-0.707-0.827l-0.338-0.393l-1.048-1.198c0,0-0.397-0.454-0.491-0.553l5.066-5.905
	c0.145,0.099,0.684,0.487,0.684,0.487l1.389,1.002c0.154,0.112,0.313,0.228,0.474,0.349c0.295,0.21,0.587,0.425,0.87,0.643
	l1.368,1.034c0.706,0.525,1.402,1.076,2.081,1.605l0.592,0.466c0.993,0.778,1.853,1.469,2.627,2.115c0,0,1.612,1.332,1.761,1.452
	c0.283,0.23,0.572,0.463,0.848,0.71l1.589,1.383l0.634-0.75c0.677-0.813,1.373-1.626,2.074-2.434
	c2.696-3.103,5.405-6.041,8.055-8.726c3.047-3.085,5.916-5.754,8.77-8.159c0.761-0.644,1.547-1.284,2.336-1.913l1.207-0.938
	l1.225-0.905c0.269-0.201,0.543-0.392,0.815-0.587l0.433-0.302c0.405-0.285,0.825-0.575,1.253-0.854
	c0.6-0.404,1.229-0.797,1.852-1.178l4.262,6.412c-0.45,0.361-0.906,0.74-1.353,1.132c-0.331,0.277-0.666,0.587-1,0.902l-0.243,0.216
	c-0.258,0.232-0.512,0.462-0.758,0.712l-0.95,0.917l-0.961,0.974c-0.633,0.654-1.27,1.324-1.882,1.988
	c-2.307,2.523-4.611,5.31-7.051,8.532c-2.147,2.823-4.254,5.803-6.447,9.108c-1.027,1.546-2.042,3.129-3.019,4.695l-1.444,2.369
	l-0.703,1.187c-0.143,0.241-0.567,0.938-0.858,1.409H16.152L16.152,47.777z"/>
</svg>
