<?xml version="1.0" encoding="utf-8"?>
<!-- Generator: Adobe Illustrator 17.0.0, SVG Export Plug-In . SVG Version: 6.00 Build 0)  -->
<!DOCTYPE svg PUBLIC "-//W3C//DTD SVG 1.1//EN" "http://www.w3.org/Graphics/SVG/1.1/DTD/svg11.dtd">
<svg version="1.1" id="Layer_1" xmlns="http://www.w3.org/2000/svg" xmlns:xlink="http://www.w3.org/1999/xlink" x="0px" y="0px"
	 width="512px" height="512px" viewBox="0 0 512 512" enable-background="new 0 0 512 512" xml:space="preserve">
<g id="google-plus-icon">
	<path fill="#D33041" d="M462,141.347h-54.621v54.622h-27.311v-54.622h-54.622v-27.311h54.622v-54.62h27.311v54.621H462V141.347z
		 M307.583,367.26c0,40.943-37.384,90.787-131.434,90.787C107.365,458.047,50,428.379,50,378.478
		c0-38.514,24.383-88.511,138.323-88.511c-16.922-13.792-21.075-33.077-10.733-53.959c-66.714,0-100.879-39.222-100.879-89.023
		c0-48.731,36.242-93.032,110.15-93.032c18.66,0,118.398,0,118.398,0l-26.457,27.77h-31.079
		c21.925,12.562,33.586,38.433,33.586,66.949c0,26.175-14.413,47.375-34.983,63.279c-36.503,28.222-27.158,43.98,11.087,71.872
		C295.121,312.074,307.583,333.882,307.583,367.26z M233.738,150.453c-5.506-41.905-32.806-76.284-64.704-77.243
		c-31.909-0.949-53.309,31.119-47.798,73.035c5.509,41.905,35.834,71.178,67.749,72.139
		C220.882,219.333,239.242,192.363,233.738,150.453z M266.631,371.463c0-34.466-31.441-67.317-84.192-67.317
		c-47.542-0.523-87.832,30.042-87.832,65.471c0,36.154,34.335,66.25,81.879,66.25C237.267,435.866,266.631,407.617,266.631,371.463z
		"/>
</g>
</svg>
