<?xml version="1.0" encoding="utf-8"?>
<!-- Generator: Adobe Illustrator 17.0.0, SVG Export Plug-In . SVG Version: 6.00 Build 0)  -->
<!DOCTYPE svg PUBLIC "-//W3C//DTD SVG 1.1//EN" "http://www.w3.org/Graphics/SVG/1.1/DTD/svg11.dtd">
<svg version="1.1" id="Layer_1" xmlns="http://www.w3.org/2000/svg" xmlns:xlink="http://www.w3.org/1999/xlink" x="0px" y="0px"
	 width="826px" height="149px" viewBox="0 0 826 149" enable-background="new 0 0 826 149" xml:space="preserve">
<g>
	<path fill="#5E869C" d="M49.838,63.419H38.685c-1.751,0-3.186,1.434-3.186,3.187v58.942c0,2.707-2.068,4.779-4.778,4.779h-9.558
		c-2.708,0-4.779-2.072-4.779-4.779V66.606c0-1.752-1.434-3.187-3.186-3.187h-3.186c-2.709,0-4.778-2.072-4.778-4.779v-9.558
		c0-2.708,2.069-4.779,4.778-4.779h3.186c1.752,0,3.186-1.434,3.186-3.188v-11.15c0-10.515,8.602-19.116,19.115-19.116h14.339
		c2.708,0,4.778,2.07,4.778,4.779v9.558c0,2.707-2.07,4.779-4.778,4.779h-4.779c-5.257,0-9.56,4.302-9.56,9.557v1.593
		c0,1.753,1.436,3.188,3.186,3.188h11.152c2.708,0,4.778,2.071,4.778,4.779v9.558C54.616,61.348,52.546,63.419,49.838,63.419"/>
	<path fill="#5E869C" d="M80.102,130.327h-9.559c-2.707,0-4.779-2.072-4.779-4.779V10.85c0-2.708,2.072-4.78,4.779-4.78h9.559
		c2.707,0,4.778,2.072,4.778,4.78v114.698C84.881,128.255,82.81,130.327,80.102,130.327"/>
	<path fill="#5E869C" d="M139.042,130.327h-19.117c-10.514,0-19.115-8.603-19.115-19.117V39.524c0-2.709,2.071-4.779,4.778-4.779
		h9.559c2.708,0,4.778,2.07,4.778,4.779v62.286c0,5.257,4.142,9.399,9.399,9.399h0.318c5.257,0,9.399-4.143,9.399-9.399V39.524
		c0-2.709,2.071-4.779,4.779-4.779h9.558c2.708,0,4.779,2.07,4.779,4.779v71.686C158.158,121.724,149.556,130.327,139.042,130.327"
		/>
	<path fill="#5E869C" d="M237.503,127.998l-2.432,0.013c-1.066,0.007-1.83-0.75-1.836-1.814l-0.382-65.873
		c-0.051-8.821-7.241-15.93-16.066-15.879l-7.606,0.043c-8.822,0.053-15.93,7.244-15.881,16.066l0.382,65.872
		c0.007,1.064-0.75,1.83-1.816,1.836l-2.434,0.015c-1.064,0.006-1.83-0.753-1.837-1.817l-0.401-69.675
		c-0.059-10.038,8.109-18.299,18.15-18.358l15.213-0.088c10.04-0.058,18.3,8.107,18.358,18.15l0.401,69.675
		C239.324,127.227,238.567,127.992,237.503,127.998"/>
	<path fill="#5E869C" d="M288.009,127.705l-15.212,0.089c-10.041,0.057-18.306-8.11-18.364-18.151l-0.308-53.243
		c-0.056-10.042,8.11-18.303,18.151-18.361l15.215-0.087c10.041-0.059,18.302,8.109,18.358,18.146l0.067,11.41
		c0.056,10.041-8.109,18.304-18.149,18.363l-23.126,0.134c-2.282,0.013-4.245,2.001-4.233,4.281l0.089,15.52
		c0.053,8.822,7.244,15.934,16.066,15.88l7.607-0.042c8.822-0.051,15.931-7.243,15.88-16.066l-0.029-5.02
		c-0.006-1.067,0.751-1.83,1.815-1.836l2.436-0.016c1.065-0.007,1.827,0.75,1.833,1.814l0.05,8.824
		C306.216,119.386,298.051,127.648,288.009,127.705 M299.788,59.939c-0.051-8.825-7.241-15.932-16.066-15.88l-7.607,0.044
		c-8.824,0.049-15.932,7.239-15.882,16.064l0.092,15.517c0.012,2.283,1.999,4.249,4.281,4.237l19.32-0.112
		c8.826-0.051,15.933-7.244,15.883-16.065L299.788,59.939z"/>
	<path fill="#5E869C" d="M356.489,127.336l-15.212,0.089c-10.041,0.057-18.302-8.11-18.36-18.151l-0.065-11.41
		c-0.06-10.038,8.107-18.302,18.148-18.36l23.122-0.134c2.284-0.014,4.25-2.001,4.238-4.284l-0.092-15.516
		c-0.05-8.824-7.24-15.931-16.066-15.882l-7.604,0.044c-8.822,0.052-15.931,7.243-15.88,16.065l0.029,5.02
		c0.006,1.064-0.751,1.83-1.816,1.836l-2.434,0.015c-1.063,0.006-1.83-0.75-1.836-1.815l-0.053-8.823
		c-0.058-10.04,8.11-18.302,18.15-18.361l15.212-0.088c10.041-0.057,18.302,8.108,18.361,18.149l0.308,53.244
		C374.699,119.017,366.53,127.28,356.489,127.336 M368.443,89.689c-0.012-2.279-2.002-4.247-4.284-4.234l-19.318,0.113
		c-8.826,0.052-15.934,7.242-15.881,16.065l0.021,3.802c0.05,8.824,7.241,15.934,16.067,15.883l7.604-0.044
		c8.823-0.053,15.934-7.242,15.88-16.068L368.443,89.689z"/>
	<path fill="#5E869C" d="M420.558,43.299l-8.064,0.047c-8.822,0.051-15.93,7.241-15.88,16.064l0.382,65.872
		c0.006,1.062-0.752,1.83-1.815,1.837l-2.436,0.013c-1.065,0.006-1.83-0.751-1.836-1.814l-0.497-86.105
		c-0.006-1.064,0.751-1.83,1.815-1.836l2.434-0.013c1.064-0.006,1.83,0.751,1.836,1.814l0.023,3.956
		c0.007,1.065,0.92,1.212,1.677,0.294c3.323-3.822,8.027-6.131,13.502-6.164l8.823-0.05c1.065-0.006,1.83,0.751,1.836,1.815
		l0.012,2.433C422.378,42.529,421.62,43.293,420.558,43.299"/>
	<path fill="#5E869C" d="M494.516,144.748l-15.213,0.088c-10.041,0.058-18.304-8.109-18.36-18.15l-0.044-7.302
		c-0.006-1.065,0.751-1.829,1.815-1.836l2.436-0.014c1.064-0.006,1.83,0.748,1.837,1.815l0.021,3.497
		c0.051,8.823,7.24,15.934,16.064,15.881l7.607-0.043c8.824-0.051,15.931-7.243,15.882-16.067l-0.119-20.232
		c-0.006-1.065-0.919-1.213-1.673-0.296c-3.326,3.823-8.027,6.134-13.503,6.164l-12.174,0.071
		c-10.04,0.06-18.301-8.108-18.36-18.149l-0.296-51.42c-0.006-1.064,0.752-1.827,1.815-1.833l2.434-0.015
		c1.064-0.007,1.83,0.75,1.836,1.814l0.273,47.617c0.056,8.822,7.245,15.93,16.068,15.881l7.606-0.044
		c8.824-0.052,15.932-7.243,15.879-16.065l-0.275-47.617c-0.007-1.064,0.75-1.827,1.815-1.833l2.436-0.016
		c1.064-0.005,1.827,0.751,1.833,1.815l0.51,87.93C512.723,136.427,504.554,144.69,494.516,144.748"/>
	<path fill="#5E869C" d="M562.758,126.106l-15.212,0.087c-10.041,0.058-18.305-8.11-18.363-18.151l-0.309-53.243
		c-0.056-10.041,8.11-18.302,18.151-18.359l15.216-0.089c10.038-0.059,18.301,8.109,18.357,18.148l0.308,53.247
		C580.965,117.786,572.799,126.047,562.758,126.106 M574.537,58.338c-0.051-8.825-7.24-15.932-16.066-15.882l-7.605,0.046
		c-8.826,0.05-15.934,7.241-15.884,16.065l0.264,45.638c0.054,8.822,7.244,15.933,16.066,15.881l7.608-0.045
		c8.821-0.049,15.93-7.24,15.88-16.065L574.537,58.338z"/>
	<path fill="#5E869C" d="M631.809,125.719l-15.211,0.088c-10.041,0.058-18.306-8.109-18.364-18.151l-0.402-69.672
		c-0.006-1.064,0.751-1.831,1.815-1.836l2.437-0.015c1.064-0.006,1.83,0.75,1.836,1.816l0.378,65.871
		c0.054,8.822,7.245,15.932,16.067,15.88l7.607-0.044c8.822-0.05,15.931-7.244,15.88-16.066L643.47,37.72
		c-0.006-1.065,0.751-1.831,1.816-1.838l2.436-0.014c1.064-0.005,1.827,0.751,1.833,1.816l0.402,69.673
		C650.017,117.398,641.85,125.66,631.809,125.719"/>
	<g>
		<g opacity="0.47">
			<g>
				<rect x="762.618" y="11.866" fill="none" width="58.145" height="58.523"/>
				<g>
					<rect x="762.618" y="11.866" fill="none" width="58.146" height="58.523"/>
					<path fill="#4F97BA" d="M813.66,41.787c0,11.779-9.553,21.328-21.326,21.328c-11.782,0-21.33-9.549-21.33-21.328
						c0-11.777,9.548-21.326,21.33-21.326C804.107,20.461,813.66,30.01,813.66,41.787"/>
					<path fill="#4F97BA" d="M782.056,24.431c4.973-1.542,6.883-8.638,8.039-12.564c2.66,3.594,1.888,8.779,6.319,9.843
						c4.425,1.058,6.846-2.451,9.402-5.77c-0.985,1.282-0.517,9.712,0.109,11.364c1.956,5.147,7.905,3.01,11.814,2.8
						c1.04-0.059-5.51,5.078-5.404,4.852c-1.831,4.023,6.718,4.044,8.431,5.014c-1.85,1.76-11.129,2.746-8.784,6.565
						c1.429,2.329,5.968,3.539,8.195,4.773c-3.774,1.141-10.015,0.51-13.231,2.875c-2.688,1.974-0.528,9.819-0.716,12.91
						c-2.931-1.172-6.564-7.713-10.028-6.88c-2.991,0.725-4.451,7.148-5.21,10.175c-1.293-2.851-4.036-9.264-7.085-10.299
						c-3.199-1.077-5.337,1.957-8.004,3.224c-0.367-2.857,2.317-7.086-0.291-8.844c-3.089-2.084-7.316-1.307-10.529-1.277
						c0.125,0,2.881-3.199,3.266-3.534c1.125-0.967,3.307-2.295,3.669-3.858c0.785-3.416-7.184-4.424-9.399-5.875
						c1.803-0.676,3.979-0.687,5.888-1.15c2.648-0.642,5.247-0.335,2.975-3.555c-1.398-1.972-3.517-3.373-4.817-5.42
						c2.321-0.141,8.862,1.542,10.166-0.736c1.298-2.273-1.579-6.342-2.145-8.566c2.948,0.167,6.082,1.791,9.131,2.2
						c1.494,0.21,3.517,0.061,4.194,1.403"/>
					<path fill="#FFFFFF" d="M810.685,41.345c0,9.948-8.061,18.008-18.008,18.008c-9.948,0-18.015-8.06-18.015-18.008
						c0-9.948,8.066-18.012,18.015-18.012C802.624,23.333,810.685,31.397,810.685,41.345"/>
					<path fill="#A6D0E7" d="M797.291,31.705c0,1.641-1.331,2.974-2.975,2.974c-1.642,0-2.977-1.333-2.977-2.974
						c0-1.645,1.336-2.976,2.977-2.976C795.96,28.729,797.291,30.06,797.291,31.705"/>
					<path fill="#A6D0E7" d="M801.92,40.302c0,1.455-1.189,2.642-2.643,2.642c-1.46,0-2.648-1.188-2.648-2.642
						c0-1.464,1.188-2.648,2.648-2.648C800.731,37.654,801.92,38.837,801.92,40.302"/>
					<path fill="#A6D0E7" d="M787.576,48.638c0,2.219-1.803,4.022-4.025,4.022c-2.223,0-4.03-1.803-4.03-4.022
						c0-2.227,1.808-4.03,4.03-4.03C785.773,44.608,787.576,46.411,787.576,48.638"/>
					<path fill="#A6D0E7" d="M797.291,54.517c0,1.279-1.035,2.318-2.314,2.318c-1.28,0-2.316-1.039-2.316-2.318
						c0-1.277,1.036-2.313,2.316-2.313C796.256,52.204,797.291,53.239,797.291,54.517"/>
					<path fill="#A6D0E7" d="M782.394,35.737c0,0.85-0.69,1.537-1.543,1.537c-0.848,0-1.532-0.687-1.532-1.537
						c0-0.846,0.685-1.539,1.532-1.539C781.704,34.198,782.394,34.891,782.394,35.737"/>
					<path fill="#A6D0E7" d="M788.173,38.05c0,1.062-0.865,1.92-1.928,1.92s-1.928-0.857-1.928-1.92
						c0-1.065,0.865-1.927,1.928-1.927S788.173,36.984,788.173,38.05"/>
				</g>
			</g>
		</g>
		<path fill="#76C2E6" d="M688.037,66.99c0-25.873,20.976-46.85,46.844-46.85c25.875,0,46.848,20.977,46.848,46.85
			c0,25.871-20.973,46.846-46.848,46.846C709.013,113.836,688.037,92.861,688.037,66.99"/>
		<path fill="#76C2E6" d="M690.944,82.001c4.021-8.839-14.754-8.895-18.525-11.018c4.065-3.87,24.45-6.033,19.303-14.424
			c-3.136-5.114-7.026-16.896-11.914-19.624c8.302-2.509,15.9,8.014,22.97,2.826c5.908-4.337,1.161-21.571,1.572-28.363
			c6.437,2.58,14.43,16.942,22.039,15.114c6.565-1.584,9.785-15.698,11.45-22.348c2.827,6.263,8.852,20.348,15.56,22.614
			c7.023,2.374,11.719-4.288,17.573-7.08c0.808,6.277-5.089,15.572,0.648,19.442c6.774,4.567,16.064,2.858,23.127,2.794
			c-0.272,0-6.328,7.029-7.179,7.762c-2.47,2.124-7.262,5.045-8.053,8.487c-1.725,7.499,15.781,9.706,20.643,12.898
			c-3.95,1.475-8.74,1.513-12.934,2.53c-5.815,1.402-11.525,0.729-6.526,7.804c3.063,4.333,7.723,7.408,10.572,11.899
			c-5.096,0.315-19.471-3.387-22.329,1.622c-2.856,4.998,3.471,13.939,4.706,18.823c-6.472-0.376-13.362-3.936-20.048-4.847
			c-3.287-0.45-7.728-0.121-9.224-3.067"/>
		<path fill="#76C2E6" d="M757.46,105.118c-10.916,3.389-15.119,18.974-17.662,27.602c-5.841-7.894-4.147-19.294-13.883-21.629
			c-9.713-2.328-15.03,5.393-20.656,12.675c2.171-2.812,1.141-21.342-0.238-24.963"/>
		<g opacity="0.75">
			<g>
				<rect x="693.418" y="24.951" fill="none" width="83.727" height="83.729"/>
				<g>
					<rect x="693.418" y="24.952" fill="none" width="83.728" height="83.728"/>
					<path fill="#3A7AA5" d="M693.418,66.816c0-23.122,18.739-41.865,41.863-41.865c23.119,0,41.863,18.743,41.863,41.865
						c0,23.121-18.744,41.864-41.863,41.864C712.157,108.68,693.418,89.937,693.418,66.816"/>
				</g>
			</g>
		</g>
		<g opacity="0.75">
			<g>
				<rect x="713.822" y="33.94" fill="none" width="49.661" height="61.741"/>
				<g>
					<rect x="713.822" y="33.94" fill="none" width="49.661" height="61.741"/>
					<path fill="#00557E" d="M723.986,89.143c0-3.611,2.931-6.538,6.541-6.538c3.608,0,6.535,2.927,6.535,6.538
						c0,3.609-2.927,6.538-6.535,6.538C726.917,95.681,723.986,92.752,723.986,89.143"/>
					<path fill="#00557E" d="M713.822,70.259c0-3.21,2.603-5.812,5.812-5.812c3.208,0,5.809,2.603,5.809,5.812
						c0,3.21-2.601,5.809-5.809,5.809C716.425,76.068,713.822,73.469,713.822,70.259"/>
					<path fill="#00557E" d="M745.335,51.949c0-4.888,3.959-8.845,8.843-8.845c4.885,0,8.845,3.957,8.845,8.845
						c0,4.883-3.96,8.843-8.845,8.843C749.294,60.792,745.335,56.832,745.335,51.949"/>
					<path fill="#00557E" d="M723.986,39.028c0-2.807,2.28-5.087,5.089-5.087c2.806,0,5.083,2.28,5.083,5.087
						c0,2.806-2.277,5.083-5.083,5.083C726.267,44.11,723.986,41.834,723.986,39.028"/>
					<path fill="#00557E" d="M756.717,80.285c0-1.868,1.519-3.387,3.386-3.387c1.866,0,3.381,1.519,3.381,3.387
						c0,1.867-1.515,3.382-3.381,3.382C758.235,83.667,756.717,82.152,756.717,80.285"/>
					<path fill="#00557E" d="M744.025,75.205c0-2.333,1.897-4.226,4.235-4.226c2.335,0,4.226,1.893,4.226,4.226
						c0,2.338-1.891,4.233-4.226,4.233C745.923,79.438,744.025,77.543,744.025,75.205"/>
				</g>
			</g>
		</g>
		<polyline fill="#76C2E6" points="691.968,85.231 682.042,99.356 701.894,99.737 		"/>
	</g>
</g>
</svg>
