<?xml version="1.0" encoding="utf-8"?>
<!-- Generator: Adobe Illustrator 17.0.0, SVG Export Plug-In . SVG Version: 6.00 Build 0)  -->
<!DOCTYPE svg PUBLIC "-//W3C//DTD SVG 1.1//EN" "http://www.w3.org/Graphics/SVG/1.1/DTD/svg11.dtd">
<svg version="1.1" id="Layer_1" xmlns="http://www.w3.org/2000/svg" xmlns:xlink="http://www.w3.org/1999/xlink" x="0px" y="0px"
	 width="512px" height="512px" viewBox="0 0 512 512" enable-background="new 0 0 512 512" xml:space="preserve">
<path id="megaphone-4-icon" fill="#FFFFFF" d="M244.188,358.903l34.94,11.31l-30.984,29.835c-6.447,6.263-15.82,8.476-24.393,5.765
	l-63.376-19.491c-8.301-2.628-14.578-9.475-16.476-17.97l-9.987-44.353l35.268,11.393l3.523,16.243
	c1.257,5.623,5.408,10.157,10.897,11.905l32.691,9.825c5.689,1.813,11.911,0.345,16.193-3.811L244.188,358.903z M396.26,384.081
	c-27.921-8.326-213.776-65.327-290.142-88.896c-20.25-6.25-32,5.75-41.471,12.162c-19.738-23.219-20.722-72.922-1.917-96.904
	c9.888,4.742,21.91,16.39,43.388,7.742c76.12-30.65,251.808-101.55,278.81-111.518c31.96-11.797,73.722,41.656,77.564,135.771
	C466.34,336.552,431.642,394.633,396.26,384.081z M415.273,158.361c-13.386-25.994-32.018-24.796-43.053,1.758
	c-19.46,46.835-17.356,121.456,7.016,171.729c12.65,26.095,32.741,24.834,43.053-1.761
	C442.95,276.782,437.901,202.3,415.273,158.361z"/>
</svg>
