<?xml version="1.0" encoding="utf-8"?>
<!-- Generator: Adobe Illustrator 17.0.0, SVG Export Plug-In . SVG Version: 6.00 Build 0)  -->
<!DOCTYPE svg PUBLIC "-//W3C//DTD SVG 1.1//EN" "http://www.w3.org/Graphics/SVG/1.1/DTD/svg11.dtd">
<svg version="1.1" id="Layer_1" xmlns="http://www.w3.org/2000/svg" xmlns:xlink="http://www.w3.org/1999/xlink" x="0px" y="0px"
	 width="32px" height="32px" viewBox="0 0 32 32" enable-background="new 0 0 32 32" xml:space="preserve">
<g>
	<path fill="#467394" d="M24,5.244H8c-2.75,0-5,2.25-5,5v8c0,2.75,2.25,5,5,5h10.98l5.687,3.278C25.62,27.071,26.4,26.62,26.4,25.52
		V22.6c1.54-0.855,2.6-2.479,2.6-4.356v-8C29,7.494,26.75,5.244,24,5.244z"/>
	<circle fill="#D6E0EF" cx="15.64" cy="18.397" r="1.344"/>
	<path fill="#D6E0EF" d="M14.503,16.019h2.343c0-1.511,2.171-3.289,2.171-4.549c0-1.161-1.148-2.104-1.861-2.309
		c-1.365-0.391-3.653,0.102-3.653,0.102v2.033c0,0,2.445-0.345,2.768,0.285C16.798,12.61,14.503,13.824,14.503,16.019z"/>
</g>
</svg>
